<svg width="20" height="24" viewBox="0 0 20 24" fill="none" xmlns="http://www.w3.org/2000/svg">
<path d="M16.721 12.6775C16.7096 10.7262 17.5937 9.25548 19.3791 8.17107C18.3805 6.74046 16.8698 5.95362 14.8784 5.80197C12.9928 5.65319 10.9299 6.90068 10.1745 6.90068C9.37625 6.90068 7.55079 5.85348 6.11445 5.85348C3.15021 5.89925 0 8.21685 0 12.9322C0 14.3256 0.254649 15.7648 0.763948 17.2469C1.44492 19.1983 3.89986 23.9794 6.46066 23.9021C7.79971 23.8706 8.74678 22.9522 10.4893 22.9522C12.1803 22.9522 13.0558 23.9021 14.5494 23.9021C17.133 23.8649 19.3534 19.5187 20 17.5616C16.5351 15.9279 16.721 12.7777 16.721 12.6775ZM13.7139 3.95076C15.1645 2.2283 15.0329 0.660342 14.99 0.0966797C13.7082 0.171072 12.226 0.969355 11.382 1.95076C10.4521 3.00369 9.90558 4.30555 10.0229 5.77336C11.4077 5.87923 12.6724 5.16678 13.7139 3.95076Z" fill="white"></path>
</svg>
