<svg width="20" height="24" fill="none" xmlns="http://www.w3.org/2000/svg"><path d="M16.721 12.678c-.011-1.952.873-3.423 2.658-4.507-.998-1.43-2.51-2.217-4.5-2.369-1.886-.149-3.95 1.099-4.704 1.099-.799 0-2.624-1.048-4.06-1.048C3.15 5.9 0 8.217 0 12.933c0 1.393.255 2.832.764 4.314.68 1.951 3.136 6.732 5.697 6.655 1.339-.031 2.286-.95 4.028-.95 1.691 0 2.567.95 4.06.95 2.584-.037 4.804-4.383 5.451-6.34-3.465-1.634-3.279-4.784-3.279-4.885ZM13.714 3.95C15.164 2.228 15.033.66 14.99.097c-1.282.074-2.764.872-3.608 1.854-.93 1.053-1.476 2.355-1.36 3.822 1.386.106 2.65-.606 3.692-1.822Z" fill="#fff"/></svg>