<svg width="40" height="40" fill="none" xmlns="http://www.w3.org/2000/svg"><path d="m32.5 11.2-11-6.36a2.98 2.98 0 0 0-3 0l-11 6.36c-.92.54-1.5 1.52-1.5 2.6v12.7c0 1.08.58 2.06 1.5 2.6l11 6.36c.92.54 2.08.54 3 0l11-6.36c.92-.54 1.5-1.52 1.5-2.6V13.8c0-1.08-.58-2.06-1.5-2.6ZM10 25.92v-9.24l8 4.64v9.22l-8-4.62Zm10-8.06-8-4.64 8-4.62 8 4.62-8 4.64Zm2 12.68v-9.22l8-4.64v9.24l-8 4.62ZM10 0H3C1.34 0 0 1.34 0 3v7h4V4h6V0Zm20 0h7c1.66 0 3 1.34 3 3v7h-4V4h-6V0ZM10 40H3c-1.66 0-3-1.34-3-3v-7h4v6h6v4Zm20 0h7c1.66 0 3-1.34 3-3v-7h-4v6h-6v4Z" fill="#E56400"/></svg>