<svg width="25" height="25" viewBox="0 0 25 25" fill="none" xmlns="http://www.w3.org/2000/svg">
<path d="M12.5002 21.875C11.1845 20.7527 9.96495 19.5224 8.85433 18.1969C7.18766 16.2062 5.2085 13.2417 5.2085 10.4167C5.20777 8.97391 5.63507 7.56337 6.4363 6.36356C7.23754 5.16375 8.3767 4.2286 9.70961 3.67645C11.0425 3.1243 12.5093 2.97998 13.9242 3.26176C15.3392 3.54353 16.6388 4.23873 17.6585 5.25937C18.3374 5.93526 18.8755 6.73909 19.2417 7.62434C19.6079 8.50959 19.7949 9.45867 19.7918 10.4167C19.7918 13.2417 17.8127 16.2062 16.146 18.1969C15.0354 19.5224 13.8158 20.7527 12.5002 21.875ZM12.5002 7.29166C11.6714 7.29166 10.8765 7.6209 10.2905 8.20695C9.7044 8.793 9.37516 9.58786 9.37516 10.4167C9.37516 11.2455 9.7044 12.0403 10.2905 12.6264C10.8765 13.2124 11.6714 13.5417 12.5002 13.5417C13.329 13.5417 14.1238 13.2124 14.7099 12.6264C15.2959 12.0403 15.6252 11.2455 15.6252 10.4167C15.6252 9.58786 15.2959 8.793 14.7099 8.20695C14.1238 7.6209 13.329 7.29166 12.5002 7.29166Z" fill="white"></path>
</svg>
