<svg width="353" height="292" fill="none" xmlns="http://www.w3.org/2000/svg"><path d="m209.614 283.914-.176.088-1.327.549c.51-.203 1.009-.401 1.503-.637Z" stroke="#fff" stroke-width=".5" stroke-miterlimit="10"/><path d="m256.367 213.03-5.922-.994c-.044-.598-.071-1.196-.132-1.795h-.186l-3.883.368-6.81.626a58.226 58.226 0 0 1-.719 15.771l-.987 4.485a58.17 58.17 0 0 1-7.019 16.078 5.038 5.038 0 0 1-3.591 2.332 5.026 5.026 0 0 1-4.086-1.278l-24.304-22.408a5.011 5.011 0 0 1-1.398-5.11c.201-.675.353-1.363.455-2.059a5.115 5.115 0 0 1 3.482-4.117l.702-.219-4.316.389-32.474 3.014-4.672.434 1.097.12a5.075 5.075 0 0 1 4.173 3.387c.231.666.508 1.315.828 1.944.428.832.617 1.767.546 2.7a5.062 5.062 0 0 1-.952 2.586l-19.741 26.546a5.036 5.036 0 0 1-3.774 2.016 5.033 5.033 0 0 1-3.958-1.62 57.515 57.515 0 0 1-9.871-14.443l-1.842-4.265a58.398 58.398 0 0 1-3.631-15.541l-6.827.632-3.838.351h-.099c0 .384.055.763.099 1.125l-5.643 2.004a.76.76 0 0 0-.499.845l.894 5.04a.724.724 0 0 0 .756.625l5.983-.044c.274 1.126.548 2.251.905 3.36l-5.226 2.953a.75.75 0 0 0-.335.917l1.75 4.82a.778.778 0 0 0 .85.494l5.878-1.098c.483 1.065.96 2.135 1.486 3.173l-4.622 3.809a.747.747 0 0 0-.176.95l2.566 4.441a.766.766 0 0 0 .922.335l5.599-2.103a65.761 65.761 0 0 0 2.001 2.844l-3.899 4.572a.767.767 0 0 0 0 .967l3.29 3.941a.744.744 0 0 0 .96.159l5.177-3.052c.784.845 1.601 1.68 2.434 2.465l-3.048 5.187a.74.74 0 0 0 .175.961l3.91 3.293a.756.756 0 0 0 .992 0l4.552-3.897a57.654 57.654 0 0 0 2.857 1.998l-2.1 5.621a.765.765 0 0 0 .307.922l4.452 2.553a.765.765 0 0 0 .966-.192l3.805-4.628c1.037.549 2.09 1.01 3.153 1.477l-1.096 5.901a.77.77 0 0 0 .499.845l4.814 1.768a.785.785 0 0 0 .905-.351l2.945-5.215c1.097.335 2.232.626 3.372.9l-.076 5.989a.786.786 0 0 0 .184.488.788.788 0 0 0 .446.269l5.045.879a.734.734 0 0 0 .845-.483l2.001-5.665c.068.005.136.005.203 0l.439.044a.605.605 0 0 0 .159 0c.131 0 .252 0 .367.027.115.027.231 0 .351.033a.217.217 0 0 0 .088 0l.669.06.548.044.625.116.993 5.912a.78.78 0 0 0 .762.642h5.117a.756.756 0 0 0 .745-.642l.993-5.912a74.149 74.149 0 0 0 3.46-.308l1.996 5.665a.731.731 0 0 0 .845.483l5.034-.878a.767.767 0 0 0 .63-.758l-.044-6.005c1.097-.274 2.243-.549 3.351-.9l2.95 5.226a.795.795 0 0 0 .916.351l4.815-1.768a.744.744 0 0 0 .482-.845l-1.097-5.901a1.66 1.66 0 0 0 .362-.176l-1.327.549c.51-.208 1.009-.428 1.503-.659.097-.028.191-.067.28-.115l.175-.088c.494-.219.987-.455 1.486-.686.23-.104.45-.208.669-.324l3.811 4.628a.76.76 0 0 0 .96.192l4.436-2.569a.766.766 0 0 0 .335-.922l-2.101-5.621a63.255 63.255 0 0 0 2.846-1.998l4.563 3.897a.721.721 0 0 0 .965 0l3.926-3.294a.762.762 0 0 0 .176-.96l-3.049-5.188c.828-.785 1.645-1.647 2.451-2.464l5.177 3.063a.76.76 0 0 0 .965-.16l3.29-3.941a.749.749 0 0 0 0-.966l-3.893-4.573a66.521 66.521 0 0 0 1.996-2.843l5.604 2.102a.743.743 0 0 0 .916-.335l2.572-4.441a.742.742 0 0 0-.165-.949l-4.623-3.81c.51-1.037.993-2.108 1.476-3.173l5.878 1.098a.755.755 0 0 0 .844-.494l1.75-4.819a.747.747 0 0 0-.335-.917l-5.204-2.953c.318-1.098.625-2.235.889-3.36l5.993.044a.723.723 0 0 0 .746-.626l.888-5.039a.732.732 0 0 0-.493-.845l-5.648-2.004c.131-1.153.235-2.306.29-3.475l5.923-.977a.778.778 0 0 0 .647-.746v-5.128a.75.75 0 0 0-.653-.713Zm-50.252 56.326a58.059 58.059 0 0 1-15.684 4.776c-.11.021-.222.035-.334.044l-6.493.609h-.351a57.967 57.967 0 0 1-16.297-1.767 5.04 5.04 0 0 1-3.266-2.726 5.06 5.06 0 0 1-.025-4.257l13.721-29.994a5.038 5.038 0 0 1 4.496-2.92c.351-.033.713-.044 1.097-.077s.713-.088 1.064-.143a5.111 5.111 0 0 1 4.935 2.042l19.105 26.898a5.051 5.051 0 0 1-1.968 7.515Z" fill="#fff"/><path d="m208.111 280.192 1.327-.549.176-.088c-.494.209-.993.429-1.503.637Z" fill="url(dist/'#paint0_linear_815_65')"/><path d="m116.556 222.504-1.678.16-2.193.203a.26.26 0 0 1 0 .088v.033l3.838-.352v-.06a.074.074 0 0 0 .027-.031c.006-.013.008-.027.006-.041Zm45.295 60.23c1.124.324 2.232.631 3.373.889a51.99 51.99 0 0 1-3.373-.889Z" fill="url(dist/'#paint1_linear_815_65')"/><path d="m317.796 213.952-4.743-2.668h-.033l-2.643 7.361h.049l5.352.983a.7.7 0 0 0 .779-.445l1.585-4.391a.684.684 0 0 0-.346-.84ZM319.118 202.732l-5.967.576.384 3.557h.044l5.237-1.46a.698.698 0 0 0 .515-.741l-.213-1.932ZM259.784 208.463l-5.967.576.307 2.745a.681.681 0 0 0 .648.653l5.434.313h.044l-.466-4.287ZM261.71 216.889h-.028l-4.058 3.639a.686.686 0 0 0-.137.89l2.495 3.957a.7.7 0 0 0 .861.269l5.012-2.113h.044l-4.189-6.642ZM269.024 226.643v.033l-2.061 5.056a.685.685 0 0 0 .274.851l3.97 2.465a.719.719 0 0 0 .899-.149l3.576-4.1.027-.033-6.685-4.123ZM279.877 232.199v.027l.362 5.451a.682.682 0 0 0 .62.648l4.65.472a.726.726 0 0 0 .74-.522l1.415-5.258v-.033l-7.787-.785ZM299.41 229.739v-.032l-7.359 2.706v.044l2.698 4.726a.698.698 0 0 0 .85.318l4.387-1.613a.725.725 0 0 0 .438-.791l-1.014-5.358ZM311.836 226.001l-3.263-4.347-.032-.044-5.424 5.676h.033l4.502 3.057a.675.675 0 0 0 .889-.082l3.235-3.382a.712.712 0 0 0 .06-.878Z" fill="#fff"/><path d="M307.585 203.846a20.83 20.83 0 0 1-.493 7.032l-11.867-3.475c.14-.782.172-1.58.093-2.371l-5.111.494c.014.135.014.271 0 .406a4.07 4.07 0 0 1-.219 1.241 4.276 4.276 0 0 1-.888 1.394 3.835 3.835 0 0 1-1.985 1.026 2.312 2.312 0 0 1-.626.061 4.163 4.163 0 0 1-1.327-.22 3.883 3.883 0 0 1-.8-.406 2.302 2.302 0 0 1-.494-.379 3.776 3.776 0 0 1-1.097-1.932 4.474 4.474 0 0 1-.076-.461l-5.095.494c.082.846.291 1.675.62 2.459l-10.847 5.973a21.252 21.252 0 0 1-2.029-7.23l-5.878.549c.137 1.426.384 2.839.74 4.227.384 1.43.877 2.828 1.475 4.183a27.765 27.765 0 0 0 4.173 6.642 27.209 27.209 0 0 0 11.461 7.905c.845.308 1.708.567 2.583.774 2.543.643 5.167.91 7.787.79a24.817 24.817 0 0 0 4.387-.549 26.585 26.585 0 0 0 7.342-2.745 25.202 25.202 0 0 0 3.724-2.431 26.977 26.977 0 0 0 5.423-5.654 26.637 26.637 0 0 0 1.837-2.998 27.95 27.95 0 0 0 1.623-3.573c.448-1.234.802-2.5 1.059-3.788.311-1.459.495-2.944.548-4.435a26.654 26.654 0 0 0-.099-3.574l-5.944.571Zm-13.024 5.687 11.9 3.475v.06a21.08 21.08 0 0 1-8.884 10.924l-5.944-10.858a8.725 8.725 0 0 0 2.928-3.601Zm-26.102 7.57 10.841-5.945a8.807 8.807 0 0 0 3.62 2.876l-3.483 11.896-.137-.044a20.963 20.963 0 0 1-10.841-8.783Zm13.117 9.458 3.471-11.895a8.888 8.888 0 0 0 4.601-.472l5.922 10.869a21.132 21.132 0 0 1-13.994 1.498Z" fill="#fff"/><path d="M126.815 248.859a93.293 93.293 0 0 0 8.374 10.814 63.735 63.735 0 0 0 9.997 9.244 41.54 41.54 0 0 0 5.829 3.48 68.412 68.412 0 0 0 6.295 2.624 75.884 75.884 0 0 0 13.232 3.332 65.03 65.03 0 0 1-13.424-2.838 45.48 45.48 0 0 1-12.36-6.038 44.92 44.92 0 0 1-5.297-4.419 62.805 62.805 0 0 1-4.744-4.99 73.476 73.476 0 0 1-7.902-11.209ZM243.843 211.246l.729-.456.34-.038c.201 3.159.143 6.33-.175 9.48a60.825 60.825 0 0 1-1.728 9.304 76.164 76.164 0 0 1-3.109 8.932 62.767 62.767 0 0 1-4.283 8.409 50.148 50.148 0 0 0 1.98-4.27 87.955 87.955 0 0 0 1.787-4.348 89.682 89.682 0 0 0 2.923-8.909 68.001 68.001 0 0 0 1.865-9.178c.175-1.554.466-7.543.4-9.376.143-1.565 0 1.575 0 0l-.729.45Z" fill="#58100A"/><path d="M128.96 26.77c-2.194 0-4.678.357-5.955.357-1.278 0-9.098-1.065-9.098-5.72 0-4.655 10.573-4.133 13.863-2.821 0 0-3.131-2.893-11.565-.912 0 0 3.784-7.031 8.225-8.942 4.442-1.91 2.495-.928 4.503-2.168 2.007-1.24 9.256-6.247 11.449-6.521 2.194-.275 12.575.735 12.481 4.133 0 3.947-12.036 9.48-14.97 9.48a8.71 8.71 0 0 0 4.173-.735s-1.097 3.754-1.958 4.49c-.422.342-.825.709-1.206 1.098a6.378 6.378 0 0 1 1.678.088c.691.175 1.097 1.037 2.676.905a11.065 11.065 0 0 0 3.449-1.098s.581-.971 1.333-.22c.751.753-.861.907-.861.907s-2.627.735-2.627 1.47c0 .736.642 1.165 4.266.429 0 0 .516-1.098 1.097-.17.581.927-.949.691-.949.691a9.152 9.152 0 0 1-3.493.994 4.482 4.482 0 0 1-2.84-1.296s-2.155-.175-3.29.259c-1.136.433-3.839 1.048-4.936-.259-.756-.916-1.382-3.93 1.097-6.587a4.527 4.527 0 0 0-2.248 4.161c0 3.047 1.096 3.2 1.096 3.2l-.981.396s.356-1.718-1.305-5.105c-1.662-3.387-6.323-2.108-6.323-2.108s5.012-1.098 6.58 3.842c1.097 3.376.313 4.244.313 4.244s-1.991 4.254-15.7-2.64c0 0 3.51 4.259 12.064 4.56 1.826.034 3.921-1.284 6.032-1.822a15.435 15.435 0 0 1 4.119-.439s1.146-.675 1.179.302c.033.977-1.245.27-1.245.27s-3.077.274-3.077 1.355 5.002.335 5.002.335.773-.977 1.283.17c.51 1.147-1.097.549-1.097.549a9.202 9.202 0 0 1-2.972.4c-1.908 0-3.592-.246-4.288.45-.697.698 1.223 1.697 1.223 2.065 0 .368-.258 1.718-1.207.428a2.392 2.392 0 0 0-1.683-1.79 29.496 29.496 0 0 0-3.307-.675Z" fill="#fff"/><path d="M147.545 6.298c.505-.874-.052-2.14-1.243-2.83-1.19-.687-2.564-.536-3.069.338-.504.874.053 2.14 1.243 2.829 1.191.688 2.565.537 3.069-.337Z" fill="#58100A"/><path d="M141.935 4.571a2.913 2.913 0 0 1 1.36-2.245 2.37 2.37 0 0 1 2.571.302 3.956 3.956 0 0 0-1.239-.22 2.269 2.269 0 0 0-1.146.275c-.361.19-.671.462-.905.796a6.697 6.697 0 0 0-.641 1.092Z" fill="#58100A"/><path d="M145.008 5.912c.11-.02.131-.414.047-.88-.084-.465-.242-.826-.352-.806-.111.02-.132.414-.047.88.084.465.242.826.352.806Z" fill="#fff"/><path d="m119.731 11.867.028.192v.011l.027.197h.006l.011-.005h.038l.011-.006H119.874l.011-.005h.027l.022-.006h.011l.011-.005H120l.011-.006h.017l.016-.005h.022l.022-.006h.022l.022-.005.027-.005h.033l.033-.006.038-.006.05-.01.055-.006.065-.011.077-.011.099-.01.131-.017.176-.028.247-.033.384-.055.674-.093 1.486-.209 3.329-.466-.006-.116-3.356.335-1.497.154-.674.066-.384.038-.252.022-.176.017-.126.016-.099.011-.082.006-.066.005-.055.006-.087.01-.033.006-.104.006-.022.005-.099.006-.011.005-.11.011h-.011l-.055.006ZM126.102 13.338l-3.717.5-1.662.23-.757.104-.422.055-.274.033-.192.033-.148.01-.115.028-.088.011-.071.011h-.055l-.061.011h-.043l-.033.011h-.033l-.039.011h-.054l-.022.011h-.072l-.011.011h-.054l-.022.011h-.083v.011h-.065l-.022-.192v-.01l-.028-.16-.011-.033h.083l.115-.017.011-.01.115-.011h.022l.115-.011h.044l.087-.011.072-.011h.066l.093-.011h.022l.093-.011.137-.011.192-.022.285-.022.433-.05.741-.066 1.678-.175 3.74-.373.01.115ZM126.487 7.711l.017.12v.006l.016.127.006-.006h.033l.005-.005h.033l.016-.006h.022l.006-.005h.027l.011-.006h.039l.016-.005h.017l.021-.006h.022l.022-.005.033-.006.033-.005.039-.006.049-.005.066-.006.082-.016.104-.011.159-.022.236-.039.422-.054.932-.132 2.084-.291-.011-.071-2.095.208-.937.093-.417.044-.241.022-.159.017-.11.01-.082.006-.061.006-.049.005-.044.006-.033.005-.055.006h-.021l-.066.005-.011.006-.061.005h-.011l-.065.006h-.006l-.033.005ZM129.76 5.422l.016.165.006.005v.006l.022.17.005-.006H129.837l.005-.005h.027l.006-.006H129.902l.006-.005h.038l.006-.006h.027l.011-.005h.011l.016-.006h.017l.022-.005h.022l.027-.005.028-.006.033-.005.043-.006.05-.005.066-.011.082-.017.11-.016.153-.022.247-.039.422-.066.943-.148 2.106-.33-.005-.098-2.128.22-.949.093-.428.044-.241.027-.159.017-.11.01-.082.006-.066.011h-.049l-.044.006-.033.005-.055.006h-.022l-.065.01h-.017l-.06.006h-.006l-.071.006-.005.005h-.033ZM122.265 9.704l.027.192v.01l.022.198h.022V10.1h.033l.005-.005H122.402l.011-.006h.033l.011-.005h.016l.016-.006h.022l.011-.005h.017l.016-.006h.017l.022-.005h.022l.027-.006.027-.005.028-.006.038-.005.044-.006.055-.005.066-.011.077-.011.104-.017.142-.022.198-.033.307-.044.543-.082 1.195-.181 2.682-.406-.011-.116-2.698.275-1.207.126-.543.05-.312.033-.198.021-.142.017-.104.01-.083.006-.06.006-.055.005-.044.006-.071.005-.027.006-.083.005-.016.006-.082.005h-.006l-.088.011h-.01l-.044.006Z" fill="#58100A"/><path d="m72.176 227.137 32.233-3.551 32.249-3.393 64.516-6.559 64.554-6.225 32.288-2.992 32.304-2.838-32.233 3.552-32.249 3.398-64.516 6.554-64.554 6.219-32.288 2.992-32.304 2.843Z" fill="#fff"/><path d="M266.896 219.271a33.703 33.703 0 0 0 3.011 3.964 22.403 22.403 0 0 0 3.597 3.387 15.17 15.17 0 0 0 4.431 2.124c1.586.488 3.218.81 4.87.961-3.291-.094-6.723-.851-9.509-2.8a20.289 20.289 0 0 1-3.619-3.475 25.128 25.128 0 0 1-2.781-4.161Z" fill="#58100A"/><g opacity=".75" fill="#fff" fill-opacity=".75"><path d="m4.513 220.847.275-.225v.971a.851.851 0 0 1-.406-.197.424.424 0 0 1 .131-.549ZM7.524 177.821v43.575l-1.19.148h-.18v-43.69h.18c.397.011.794 0 1.19-.033ZM9.97 133.319l-.028 1.098a.128.128 0 0 1-.033-.083 1.3 1.3 0 0 1-.027-.872.977.977 0 0 1 .087-.143ZM10.265 177.305v43.816h-.164l-.982.099h-.224v-43.64l.224-.05a8.118 8.118 0 0 1 1.146-.225ZM14.427 62.199l-.104 4.22c0-.13 0-.257-.039-.372a8.914 8.914 0 0 0-.23-1.23 2.8 2.8 0 0 0-.696-1.142 1.998 1.998 0 0 1-.324-.604v-.39a.505.505 0 0 1 .263-.202c.307-.088.582-.149.845-.203.096-.021.191-.047.285-.077ZM13.736 73.979c.16-1.098.313-2.234.488-3.343l-1.557 64.297c-.066 0-.115 0-.176.027-.347.053-.7.053-1.047 0a.46.46 0 0 1-.148 0l.548-21.831c.285-4.392.472-8.734.593-13.021.12-4.287.318-8.64.586-13.037.137-2.196.252-4.353.318-6.543.066-2.19.198-4.375.395-6.55ZM11.63 177.08a9.973 9.973 0 0 1 1.372-.082v43.805c-.466.06-.916.11-1.371.159V177.08ZM12.52 236.705c.126-.272.289-.527.482-.757v2.196a.963.963 0 0 1-.549-.516.918.918 0 0 1 .066-.923ZM17.174 61.814l-1.76 72.767c-.46.011-.919.058-1.371.143l1.76-72.75c.466-.066.921-.121 1.371-.16ZM15.212 233.719c.191-.192.367-.373.548-.549v6.5c-.515-.368-.965-.675-1.365-.95v-4.21l.032-.033c.379-.341.62-.599.785-.758ZM15.29 183.706l-.034 3.595c-.011.658.01 1.315.066 1.971.046.655.035 1.312-.033 1.965 0 .664-.033 1.339-.093 2.015-.06.675-.099 1.356-.115 2.02-.017.664 0 1.257.033 1.932.032.675.032 1.323 0 2.004-.066 1.29-.132 2.613-.165 3.946a56.605 56.605 0 0 1-.258 4.052 16.944 16.944 0 0 0 .05 3.595c-.004.293.024.586.082.873.046.287.068.577.066.867.05.322.05.65 0 .972-.067.317-.1.641-.099.966.29-.033.614-.082.932-.148v6.148c-.35.049-.707.099-1.096.126-.096.019-.193.03-.291.033v-43.673c.323 0 .642-.033.998-.066.122.008.245.008.367 0v6.774l-.41.033ZM19.916 61.705l-1.754 72.635c-.472.071-.922.11-1.377.143l1.76-72.746c.456-.005.905-.027 1.371-.032ZM18.48 176.531v6.867c-.45.05-.905.083-1.372.132v-6.774c.242-.033.5-.082.74-.132.208-.046.42-.078.631-.093ZM17.624 214.122c.274 0 .548-.044.855-.077v6.039c-.45.093-.92.175-1.37.225v-6.17c.18-.017.356-.017.515-.017ZM17.416 231.447c.34-.357.69-.708 1.063-1.065v12.126a7.794 7.794 0 0 1-.822-.824c-.176-.192-.357-.4-.549-.593v-9.331c.1-.11.209-.204.308-.313ZM22.658 61.77l-1.749 72.235-.39.038-.98.121 1.748-72.46c.324 0 .642 0 .982.039l.39.027ZM21.216 176.449v6.966l-.378-.072c-.34 0-.664-.027-.982-.027v-6.884h.982a2.99 2.99 0 0 1 .378.017ZM20.838 213.365c.133-.079.261-.165.384-.258v6.34a2.557 2.557 0 0 1-.384.11c-.323.099-.664.181-.982.258v-5.984c.268-.064.524-.172.757-.318.072-.049.154-.099.225-.148ZM20.838 228.01l.384-.389v16.841c-.126-.066-.258-.132-.384-.209a9.415 9.415 0 0 1-.982-.647v-14.531c.11-.115.291-.307.549-.582.12-.137.28-.324.433-.483ZM25.39 61.984l-.045 1.95c0 .032 0 .049-.038.082-.148.301-.252.548-.324.713v.05c-.56 1.683-.899 3.432-1.009 5.204a160.08 160.08 0 0 0-.203 3.013l.27-11.16 1.03.072c.109.012.216.037.318.076ZM23.58 123.905h.34l-.236 9.836-.34.039c-.34.027-.696.049-1.036.088l.24-9.931c.346-.016.686-.027 1.032-.032ZM23.619 211.191c.115-.099.225-.214.34-.324v7.685l-.34.132c-.335.126-.691.258-1.031.351v-6.927c.356-.291.696-.599 1.03-.917ZM23.959 176.674v7.581a2.432 2.432 0 0 0-.34-.176 4.808 4.808 0 0 0-1.031-.39v-7.136c.34 0 .696.044 1.03.093l.34.028ZM23.619 228.658c.097.284.21.563.34.834v16.309c-.115-.049-.225-.115-.34-.164-.335-.16-.691-.319-1.031-.5v-18.724c.241-.159.406-.126.466.066.148.658.307 1.306.488 1.932.015.085.041.168.077.247ZM26.635 123.8l-.236 9.771-1.03.072h-.34l.235-9.821c.113.008.227.008.34 0 .357.011.719.006 1.031-.022ZM26.694 177.365v9.695a4.981 4.981 0 0 0-.499-.708 6.63 6.63 0 0 0-.548-.632 7.66 7.66 0 0 0-.334-.368v-8.42l.334.099c.355.092.705.204 1.047.334ZM25.663 208.896c.372-.499.712-1.015 1.03-1.531v9.727c-.334.225-.674.45-1.03.642-.108.067-.22.127-.335.181v-8.563c.126-.141.238-.293.335-.456ZM25.663 231.787c.322.334.667.645 1.03.933v14.19c-.334-.11-.69-.225-1.03-.368l-.335-.148V231.43c.104.126.216.245.335.357ZM29.38 123.592l-.235 9.798h-.05c-.306.028-.614.05-.937.061h-.39l.242-9.755h.384c.323-.039.669-.06.987-.104ZM29.436 178.787v36.032c-.323.302-.663.593-.981.884l-.39.34V204.11c.175-.642.305-1.295.39-1.955 0-.274.06-.549.077-.823l.197-3.338a34.355 34.355 0 0 0-.274-4.753 24.368 24.368 0 0 0-.241-1.554c-.05-.192-.1-.401-.149-.593v-13.13l.291.148a.32.32 0 0 1 .099.06c.334.198.674.39.981.615ZM28.455 233.846c.318.175.658.351.981.499v13.24l-.981-.197-.39-.094v-13.641c.132.066.258.149.39.193ZM32.129 123.207l-.241 10.029h-.116c-.433 0-.839.028-1.255.066l.235-9.881c.472-.054.922-.126 1.377-.214ZM32.173 181.285v30.482a.126.126 0 0 1-.033.066c-.225.362-.49.697-.79.999-.175.181-.367.374-.548.549v-33.512c.498.43.957.904 1.37 1.416ZM30.808 234.867a9.96 9.96 0 0 0 1.365.307v12.691a12.218 12.218 0 0 1-1.365-.082v-12.916ZM34.882 122.708l-.252 10.353h-.209c-.389 0-.756.049-1.162.088l.247-10.189c.455-.06.92-.148 1.376-.252ZM34.915 185.995v20.986a7.289 7.289 0 0 1-.823 1.399 7.188 7.188 0 0 0-.548.824v-25.948c.517.881.975 1.796 1.37 2.739ZM33.544 235.317c.456.041.913.057 1.37.049v12.368c-.454.063-.911.101-1.37.115v-12.532ZM37.042 198.302a24.219 24.219 0 0 1-.757 4.803V190.15c.684 2.66.94 5.412.757 8.152ZM37.64 121.989l-.247 10.122a1.8 1.8 0 0 1-1.2.73c-.06.004-.119.014-.176.028l.252-10.48c.439-.104.894-.236 1.349-.373.005-.011.005-.011.022-.027ZM36.285 235.317c.45-.033.916-.083 1.366-.16v12.11c-.45.099-.9.176-1.366.258v-12.208ZM40.403 120.842l-.082 3.551-.214.818c0 .044 0 .077-.038.126a18.267 18.267 0 0 1-.779 2.322 48.56 48.56 0 0 1-.455 1.439l.186-7.609c.235-.095.463-.203.686-.324.148-.099.306-.182.471-.247a.99.99 0 0 1 .225-.076ZM40.327 166.013c-.02-.312.001-.626.066-.933v.966a.12.12 0 0 1-.066-.033ZM40.168 234.625c.077-.021.152-.049.224-.082v12.159l-.224.049c-.39.099-.757.176-1.146.258v-12.077c.389-.098.773-.197 1.146-.307ZM43.129 159.563v9.788a.64.64 0 0 0 0-.176 2.315 2.315 0 0 0-.16-.549 4.396 4.396 0 0 0-1.195-1.597v-4.94c.247-.434.456-.857.697-1.29.159-.308.323-.599.499-.884.05-.143.093-.258.159-.352ZM42.954 171.08a5.08 5.08 0 0 0 .176-1.032v3.722h-.176c-.399.028-.8.012-1.195-.05v-.043c.506-.812.908-1.684 1.195-2.597ZM42.954 233.604l.176-.077v12.499l-.176.05c-.34.093-.663.192-.998.274l-.197.044v-12.301c.406-.149.79-.308 1.195-.489ZM45.871 75.148v1.872s0-.033-.032-.05c-.192-.164-.39-.34-.598-.549a.679.679 0 0 1-.242-.499.506.506 0 0 1 0-.16c.066-.131.116-.213.143-.213.027 0 .115-.06.23-.209.16-.08.327-.144.5-.192ZM45.87 121.176v2.487H45c-.258 0-.417-.049-.499-.148v-.291a.115.115 0 0 1 .033-.061c.124-.237.28-.455.466-.647.066-.094.141-.18.225-.258.258-.253.461-.555.598-.89.016-.054.032-.126.049-.192ZM45.871 159.821v11.259c-.274.335-.548.659-.855.966a9.36 9.36 0 0 1-.5.549v-13.663c.175.016.345.067.5.148.1.045.192.104.274.176.192.176.384.373.581.565ZM44.999 232.572c.29-.159.581-.335.872-.516v12.971c-.29.127-.581.242-.872.352-.163.07-.33.13-.499.181v-12.73c.172-.074.34-.16.499-.258ZM47.675 167.786a7.48 7.48 0 0 1-.439 1.148v-7.098c.242.511.425 1.046.549 1.597a7 7 0 0 1 .214 1.307 8.244 8.244 0 0 1-.214 2.58c-.033.143-.077.307-.11.466ZM48.607 74.956v48.433c-.274.032-.548.043-.822.076-.176 0-.368.033-.549.066V74.989h.549c.151-.009.303-.009.455 0l.367-.033ZM48.382 230.349l.225-.176v13.553c-.241.127-.466.258-.707.368l-.115.05a7.473 7.473 0 0 1-.549.274v-13.262c.181-.116.373-.242.549-.374.207-.133.406-.278.597-.433ZM51.35 74.742v48.372l-1.372.143v-48.4c.192 0 .368 0 .549-.033.274-.016.548-.05.822-.082ZM51.35 181.367v4.211c-.149-.16-.308-.341-.472-.5a9.166 9.166 0 0 1-.9-1.016v-1.515c.045-.047.093-.091.143-.131.406-.357.806-.719 1.228-1.049ZM49.978 229.026c.467-.401.933-.84 1.371-1.274v14.388c-.438.291-.904.549-1.37.84v-13.954ZM54.086 74.358v48.498c-.466.033-.916.077-1.371.126V74.566h.099c.433-.099.855-.16 1.272-.209ZM54.086 179.418v9.854s0-.033-.033-.05a15.157 15.157 0 0 0-1.338-2.036v-6.834a.364.364 0 0 1 .082-.066c.395-.308.856-.593 1.289-.868ZM52.715 226.237a20.34 20.34 0 0 0 1.37-1.773v15.771c-.449.357-.899.692-1.37.999v-14.997ZM56.614 88.531a83.7 83.7 0 0 1-.126 4.55c.11 0 .225 0 .34-.032v9.195a.587.587 0 0 0-.258.516c0 1.789 0 3.562-.115 5.319-.115 1.756-.16 3.551-.192 5.341l.548-.05v9.212c-.455.049-.92.076-1.37.126V74.209c.45-.06.915-.093 1.37-.11v10.112c-.098 1.482-.18 2.92-.197 4.32ZM56.827 177.64v14.953a9.927 9.927 0 0 1-1.37-1.389v-12.691c.081-.05.158-.116.24-.159.384-.258.784-.5 1.13-.714ZM55.522 222.268c.466-.823.9-1.646 1.305-2.481v18.115c-.439.434-.905.857-1.37 1.241v-16.759l.065-.116ZM59.564 73.984v9.113h-.066a5.63 5.63 0 0 0-.723.148c-.19.048-.386.068-.582.06v-9.271c.44 0 .872-.033 1.306-.05h.065ZM59.498 92.769h.066v9.052h-.066c-.417 0-.85.027-1.289.077v-8.992c.422-.05.855-.099 1.289-.137ZM59.498 113.03a.093.093 0 0 0 .066 0v9.332h-.066c-.433.033-.866.06-1.305.11v-9.261l.697-.099.608-.082ZM59.564 176.174v18.324s-.05 0-.066-.033a20.24 20.24 0 0 1-1.305-.807v-16.743l.1-.049c.306-.192.69-.401 1.145-.626 0 0 .044 0 .06-.033.017-.033.05 0 .066-.033ZM59.498 213.348c0-.06.05-.126.066-.192v21.837c0 .033-.05.049-.066.082-.416.483-.85.983-1.305 1.449v-19.696c.483-1.141.922-2.3 1.306-3.48ZM62.306 73.841v9.047c-.406.033-.806.05-1.212.05a.42.42 0 0 0-.143 0v-9.014c.4 0 .823-.05 1.24-.066a.279.279 0 0 0 .115 0v-.017ZM62.289 92.374v9.644a1.92 1.92 0 0 0-.905-.208c-.15.008-.3.008-.45 0v-9.244l1.355-.192ZM62.289 112.629v9.47c-.455.032-.905.06-1.354.109v-9.403c.191 0 .367-.049.548-.077a6.07 6.07 0 0 1 .806-.099ZM62.306 180.269v15.727c-.456-.274-.889-.549-1.355-.774V175.9c.29.142.466.483.516 1.065.04.508.11 1.014.208 1.515.11.617.323 1.211.63 1.756a.056.056 0 0 0 0 .033ZM62.289 204.801v-.049 26.771c-.439.615-.888 1.23-1.354 1.807v-24.494c.29-.889.597-1.795.899-2.679.164-.45.307-.906.455-1.356ZM65.042 73.556v9.162l-.708.05-.663.049v-9.124c.225 0 .439-.027.663-.06.225-.033.483-.05.708-.077ZM64.334 91.775c.252-.148.49-.321.708-.516v7.136l-.099.368c-.126.5-.241.988-.334 1.422-.094.434-.181.741-.275 1.142 0 .082-.049.164-.065.258-.066.324-.143.68-.242 1.098a1.228 1.228 0 0 1-.356.631V92.083c.188-.068.371-.149.548-.242a.346.346 0 0 0 .115-.066ZM64.334 112.47c.225 0 .466 0 .708-.033v9.425l-.708.061c-.224 0-.455.033-.663.066v-9.491c.197 0 .39-.028.581-.028h.082ZM65.042 183.98v43.207c-.225.423-.466.823-.708 1.241a11.68 11.68 0 0 1-.663 1.048v-29.011c.05-.149.082-.275.132-.423.142-.351.323-.79.548-1.241 0-.033.033-.082.05-.109a1.485 1.485 0 0 0 .125-1.214 1.732 1.732 0 0 0-.84-.856V182.35c.226.241.44.499.665.774.225.274.45.565.69.856ZM66.473 91.934c0 .116-.043.242-.06.357v-1.356a1.214 1.214 0 0 1 .06 1ZM67.778 73.21v9.294l-.657.044c-.242 0-.483.05-.708.05v-9.223l.351-.05.357-.049c.224-.033.433-.05.657-.066ZM67.12 112.305c.22 0 .44-.016.658-.049v9.37c-.224 0-.45 0-.657.033l-.582.05a.334.334 0 0 0-.126 0v-9.354l.581-.05h.127ZM67.57 185.539c.069.017.138.029.209.033v36.85c-.209.373-.434.758-.658 1.147-.225.39-.467.824-.708 1.225v-39.639c.221.129.46.227.708.291.147.04.297.072.45.093ZM70.52 73.007v9.211a3.164 3.164 0 0 0-.548.033c-.274.033-.548.077-.806.093v-9.26c.477-.033.905-.077 1.355-.077ZM69.166 111.982a6.453 6.453 0 0 0 1.355-.599v9.694a3.707 3.707 0 0 1-.872.352c-.16.036-.32.063-.483.082v-9.529ZM69.522 182.059c.368-1.049.708-2.064.998-3.063v37.789a27.805 27.805 0 0 1-1.354 3.161v.033-36.433c.05-.164.082-.323.115-.483.055-.34.136-.676.241-1.004ZM73.256 78.453v4.808a1.776 1.776 0 0 1-.318-.148 10.114 10.114 0 0 1-.987-.549l-.06-.066V73.1h.06a.763.763 0 0 1 .406.467c.116.434.202.877.258 1.323.046.724.16 1.443.34 2.146.11.483.224.95.301 1.417ZM72.615 109.824a.861.861 0 0 1 .642-.148v2.262a3.372 3.372 0 0 1-.209.45 6.484 6.484 0 0 0-.658 1.839 29.745 29.745 0 0 0-.438 2.196c0 .082-.028.181-.044.258-.017.076 0 .065 0 .098v-6.373c0-.033.05-.049.06-.066.2-.191.416-.364.647-.516ZM72.44 172.562c.241-1.017.514-2.033.817-3.046v38.288c-.126.351-.258.725-.4 1.098a26.09 26.09 0 0 0-.905 3.085l-.044.192v.066-37.602c0-.083.05-.149.06-.225.165-.632.324-1.241.472-1.856ZM75.999 160.37v39.853a2.598 2.598 0 0 0-.647.95c-.26.635-.474 1.288-.642 1.954-.033.093-.05.192-.082.269v-38.48c.208-.709.422-1.4.614-2.081.258-.84.516-1.658.757-2.465ZM78.735 151.642v47.45c-.47.038-.93.147-1.366.324v-43.662c.4-1.367.85-2.739 1.366-4.112ZM81.476 143.496v36.779a28.643 28.643 0 0 0-1.37 5.099v-37.426c.131-.384.257-.758.389-1.098.303-.94.608-1.958.916-3.052.016-.121.049-.203.065-.302ZM80.106 187.449c.459.003.918-.036 1.37-.115v11.599c-.433.028-.888.061-1.37.077v-11.561ZM84.213 134.488v38.239a36.231 36.231 0 0 1-.548 1.597c-.258.774-.549 1.548-.817 2.322v-41.84c.174-.093.358-.169.548-.225a1.4 1.4 0 0 1 .241-.033c.209-.033.4-.06.576-.06ZM83.665 186.994h.548v11.72c-.175 0-.367 0-.548.033-.275 0-.549.032-.817.065v-11.703a4.69 4.69 0 0 1 .817-.115ZM86.955 134.274v28.885c-.181.631-.324 1.257-.5 1.888-.207.824-.421 1.647-.613 2.416-.082.34-.16.68-.258 1.032V134.4c.29 0 .581 0 .872-.044.186-.016.334-.049.499-.082ZM86.456 186.95h.499v11.764h-1.371v-11.748l.872-.016ZM89.692 133.868v21.145l-.05-.05c-.384 1.098-.74 2.13-1.047 3.069-.028.093-.06.176-.093.274-.033.099-.115.319-.176.5v-24.741l.176-.033c.4-.065.806-.093 1.19-.164ZM88.502 186.933h1.19v11.885c-.4-.033-.79-.066-1.19-.082h-.176v-11.803h.176ZM92.434 133.483v28.21c-.116-.439-.242-.856-.357-1.262a29.873 29.873 0 0 0-.773-2.196v-.049a9.77 9.77 0 0 1-.225-.626v-23.824c.066 0 .143 0 .225-.033.356-.077.74-.137 1.13-.22ZM91.286 187.06c.373.033.757.066 1.146.115v12.033c-.372-.083-.756-.132-1.146-.182l-.225-.032v-11.951c.083 0 .143.017.225.017ZM95.17 79.325v17.352a70.108 70.108 0 0 1-.401-11.225c.019-2.048.152-4.094.4-6.127ZM95.17 133.017v37.575c-.143-.335-.29-.643-.433-.95-.354-.7-.63-1.436-.823-2.196a4.319 4.319 0 0 1-.115-.439v-33.765c.148-.033.323-.049.548-.082l.823-.143ZM93.799 187.334c.465.063.923.166 1.37.308v12.208a18.028 18.028 0 0 0-1.255-.368.28.28 0 0 0-.115 0v-12.148ZM97.911 65.695v43.63c-.548-1.548-.97-3.129-1.371-4.743V71.037c.4-1.79.839-3.569 1.371-5.342ZM97.911 133.983v46.402a23.79 23.79 0 0 1-1.097-3.92c-.098-.433-.175-.856-.274-1.273v-42.268a2.52 2.52 0 0 1 .658.082.803.803 0 0 1 .68.675c.019.1.03.201.033.302ZM96.54 188.108c.483.181.932.373 1.371.549v12.208a19.2 19.2 0 0 0-1.371-.549v-12.208ZM100.648 57.637v58.445a37.045 37.045 0 0 1-.839-1.773c-.175-.423-.367-.856-.548-1.295V61.309c.455-1.24.905-2.48 1.387-3.672ZM100.648 148.063v54.224a10.925 10.925 0 0 0-1.37-.774v-12.307c.421.143.838.274 1.288.401a12.099 12.099 0 0 0-.757-4.392 14.856 14.856 0 0 0-.548-1.4v-39.523c.098.242.18.483.274.73.406.994.773 2.026 1.113 3.041ZM103.389 51.291v69.594c-.131-.192-.257-.4-.389-.592a43.21 43.21 0 0 1-.981-1.647V54.277c.191-.466.4-.916.614-1.388.109-.258.241-.516.367-.774l.389-.824ZM103 155.545c.131.439.257.873.389 1.307v47.642a2.95 2.95 0 0 0-.389-.401 5.252 5.252 0 0 0-.456-.439l-.548-.434v-50.913c.362 1.075.68 2.157 1.004 3.238ZM106.125 46.148v78.498c-.11-.149-.225-.275-.34-.423a23.087 23.087 0 0 1-1.031-1.35V48.585c.34-.631.68-1.257 1.031-1.855.115-.193.214-.39.34-.582ZM105.785 164.822c.115.384.23.758.34 1.142v45.227a9.418 9.418 0 0 0-.34-2.597 6.823 6.823 0 0 0-.45-1.262 10.445 10.445 0 0 0-.581-1.065v-44.881c.356 1.142.696 2.289 1.031 3.436ZM106.077 212.239c.033-.356.049-.713.049-1.048v1.048h-.049ZM108.867 41.795v85.93a19.96 19.96 0 0 1-1.031-1.098 2.89 2.89 0 0 1-.34-.351v-82.4l.34-.55c.335-.51.675-1.032 1.031-1.531ZM107.836 171.755c.335 1.148.675 2.306 1.031 3.47v36.74c-.389.044-.729.06-1.031.093-.115 0-.23 0-.34.033v-41.483c.049.148.082.291.126.439.066.22.148.467.214.708ZM111.603 38.133v29.484c-.142.45-.29.916-.416 1.383-.214.713-.39 1.422-.549 2.097a55.48 55.48 0 0 0-.389 1.729V39.89c.132-.176.258-.335.389-.516.307-.4.626-.84.965-1.24ZM110.623 99.97c.29 1.143.608 2.257.981 3.355v26.898c-.323-.275-.658-.549-.981-.851a7.431 7.431 0 0 1-.39-.357V98.341c.116.549.242 1.098.39 1.63ZM110.623 181.076c.323 1.098.641 2.196.981 3.261v27.337c-.34.049-.658.077-.981.11-.129.019-.259.03-.39.033v-32.031l.39 1.29ZM114.346 35.02v25.175a47.084 47.084 0 0 0-1.371 3.403V36.52c.449-.516.899-1.015 1.371-1.498ZM112.964 106.761c.398.849.855 1.724 1.371 2.624v22.907a17.614 17.614 0 0 1-1.371-.999v-24.532ZM114.115 192.253c.082.225.148.455.231.68v18.406c-.066 0-.132 0-.198.033-.4.049-.79.099-1.173.159v-22.825c.367 1.192.756 2.372 1.14 3.547ZM117.082 32.424v22.254c-.483.857-.932 1.73-1.371 2.602V33.676c.197-.192.389-.384.598-.55.208-.164.493-.493.773-.702ZM115.706 111.63c.424.662.881 1.302 1.371 1.916v20.453a29.94 29.94 0 0 1-1.371-.823V111.63ZM116.468 199.263c.214.647.422 1.29.614 1.921v9.71c-.45.077-.905.143-1.371.226v-14.053c.258.719.499 1.476.757 2.196ZM119.819 30.327v19.949c-.258.373-.499.73-.757 1.098-.258.367-.417.647-.609.966V31.326c.437-.356.893-.69 1.366-.999ZM118.447 115.275c.424.527.88 1.028 1.366 1.499v18.664c-.285-.127-.593-.286-.9-.434-.159-.082-.323-.159-.466-.241v-19.488ZM119.61 206.783c.076.109.146.223.209.34v3.321l-.867.165a3.981 3.981 0 0 1-.499.077v-5.769c.126.241.274.499.433.741.225.351.45.741.724 1.125ZM122.559 28.587v18.176c-.082.082-.142.159-.224.258-.39.45-.774.916-1.147 1.4V29.393c.373-.23.757-.455 1.147-.68l.224-.127ZM122.51 119.271s.033.033.049.033v17.243l-.224-.083c-.39-.126-.757-.269-1.147-.433v-17.918c.373.357.757.692 1.147 1.016.065.049.109.099.175.142ZM125.296 27.149v16.764c-.06.05-.109.11-.175.16-.401.39-.79.774-1.174 1.18V27.83c.384-.214.79-.406 1.19-.599.051-.032.104-.06.159-.082ZM125.122 121.094c.055.038.114.071.175.099v16.144l-.175-.049a14.23 14.23 0 0 1-1.19-.319v-16.633c.4.275.789.533 1.19.758ZM125.121 151.044c.049-.044.115-.077.176-.126v1.098a1.479 1.479 0 0 1-.11-.165.333.333 0 0 1-.066-.11c-.159-.241-.192-.423-.099-.549l.099-.148ZM125.121 208.38c.067-.079.126-.166.175-.258v2.119h-.208c-.549 0-.839 0-.839-.077-.159-.291.099-.823.746-1.613a2.09 2.09 0 0 0 .126-.171ZM128.038 25.941v15.705c-.291.215-.581.44-.872.665-.159.126-.334.258-.499.4V26.507c.165-.083.324-.148.483-.214.307-.127.619-.242.888-.352ZM127.221 122.175c.258.116.548.214.806.308v15.37c-.29-.049-.581-.082-.872-.126l-.499-.099v-15.711a5.4 5.4 0 0 0 .499.225c.028.017.066.017.066.033ZM128.039 150.369v59.658l-.872.083a.255.255 0 0 1-.11 0c-.129.019-.259.03-.389.032v-34.099c.066-.709.131-1.433.208-2.141.172-2.115.233-4.236.181-6.357a207.112 207.112 0 0 1-.049-6.192c0-.922.066-1.839.142-2.745a2.19 2.19 0 0 0 0-.324 11.18 11.18 0 0 0 0-1.487c-.033-.275-.065-.549-.109-.802-.066-.373-.132-.763-.214-1.18a4.724 4.724 0 0 0-.176-.741v-3.519l.499-.043h.072c.285-.061.548-.105.817-.143ZM130.775 24.986V39.94c-.275.132-.549.291-.817.45-.269.16-.373.225-.549.34V25.443l.549-.198c.268-.093.553-.175.817-.258ZM129.963 122.889c.269 0 .549.044.817.06v15.162l-.548-.033h-.241c-.198 0-.373-.033-.549-.06v-15.211c.173.036.346.063.521.082ZM130.457 149.902l.318-.049v59.79l-.817.126c-.149 0-.308.05-.472.066h-.077v-59.724c.176-.033.368-.083.549-.11l.499-.099ZM133.516 24.311v14.355c-.389.142-.756.29-1.146.466a1.781 1.781 0 0 0-.224.116v-14.63c.466-.131.921-.225 1.37-.307ZM132.951 122.856c.192-.033.373-.049.549-.099v15.37c-.45 0-.921.033-1.371.033v-15.2c.276-.018.551-.053.822-.104ZM132.156 149.694a7.658 7.658 0 0 1 1.371-.033v59.559c-.46.024-.918.078-1.371.159v-59.685ZM136.253 23.86v14.048c-.461.083-.916.19-1.365.324V24.053c.449-.082.915-.143 1.365-.192ZM134.899 122.499c.467-.099.916-.225 1.366-.367v15.705c-.45.065-.916.131-1.366.164v-15.502ZM134.899 149.677a9.779 9.779 0 0 0 1.366-.132v59.642h-1.015a2.57 2.57 0 0 0-.351 0v-59.51ZM138.995 23.68v13.954c-.458.002-.916.03-1.371.082V23.73c.466-.016.921-.05 1.371-.05ZM137.641 121.676c.466-.159.921-.351 1.371-.549v16.144c-.451.13-.909.233-1.371.308v-15.903ZM138.995 171.464a61.043 61.043 0 0 0-.307 5.643c-.017.61.016 1.219.099 1.823.063.601.089 1.207.076 1.811-.076.61-.142 1.241-.175 1.834a9.563 9.563 0 0 0 .033 1.822 12.827 12.827 0 0 1-.132 1.795c-.082.588-.124 1.18-.126 1.773a7.033 7.033 0 0 0 .143 1.532c.117.541.134 1.099.049 1.647a32.072 32.072 0 0 0-.099 3.48c0 1.18 0 2.371-.093 3.596-.093 1.224-.082 2.404-.208 3.551a8.993 8.993 0 0 0 .351 3.497c.131.357.257.681.389.971v2.355c-.062.03-.127.055-.192.077-.386.131-.78.239-1.179.324v-59.658c.466-.083.921-.126 1.371-.176v22.303ZM141.732 23.746v14.047a.095.095 0 0 0-.061 0 6.074 6.074 0 0 0-.904-.11 3.312 3.312 0 0 0-.401 0V23.68c.433 0 .867.033 1.305.066h.061ZM141.715 55.99v4.117l-.06-.066-.247-.241a3.632 3.632 0 0 1-.998-2.278 1.29 1.29 0 0 1 .373-.884c.239-.27.538-.48.872-.615 0 0 .044-.033.06-.033ZM141.671 119.744a.093.093 0 0 1 .061-.033v16.77h-.061c-.438.164-.872.291-1.305.422v-16.468c.451-.199.887-.43 1.305-.691ZM141.671 153.289l.06.066v19.674a.475.475 0 0 0-.06-.099 3.506 3.506 0 0 0-.231-.285 8.694 8.694 0 0 0-1.096-1.049v-20.404a5.742 5.742 0 0 0 1.206 1.998l.121.099ZM144.473 24.119v14.887a7.233 7.233 0 0 0-1.349-.807V23.894c.45.06.905.143 1.354.225h-.005ZM144.456 54.519v8.146a12.62 12.62 0 0 0-1.179-1.098c-.06-.05-.126-.093-.175-.142v-5.94c.21-.09.411-.202.597-.335.258-.197.521-.406.757-.631ZM144.456 117.756v17.566c-.44.229-.892.432-1.354.61v-17.127c.469-.326.921-.675 1.354-1.049ZM144.456 156.66v19.657a25.453 25.453 0 0 1-1.239-1.455.736.736 0 0 1-.115-.115V154.93l.098.11c.401.522.817 1.071 1.256 1.62ZM147.21 24.81v17.775a6.256 6.256 0 0 0-.708-1.416c-.177-.33-.39-.64-.636-.922v-15.82c.225.045.446.104.664.175.159.033.307.082.466.126.159.044.137.05.214.083ZM146.76 51.34c.159-.367.324-.74.45-1.097v16.111c-.05-.066-.077-.132-.126-.198l-.582-.834a16.401 16.401 0 0 0-.663-.955V52.92c.249-.348.47-.715.663-1.097.102-.152.189-.314.258-.483ZM146.502 115.857c.242-.274.483-.549.708-.823v18.664c-.225.175-.466.34-.708.499a6.097 6.097 0 0 1-.663.39v-18.055c.23-.225.455-.45.663-.675ZM146.962 159.805c.083.082.149.159.225.242v19.141c-.225-.242-.466-.483-.707-.725-.241-.241-.433-.45-.664-.675v-19.355c.231.274.439.549.664.807.225.258.345.373.482.565ZM149.951 25.875V68.99a4.258 4.258 0 0 1-1.371-.856V25.316c.241.082.483.18.707.274l.664.285ZM149.951 110.033v21.529l-.664.549-.68.582v-19.839c.066-.126.127-.258.192-.384a13.98 13.98 0 0 0 .439-1.806c.01-.1.036-.198.077-.291a.545.545 0 0 1 .636-.34ZM149.287 162.451c.199.266.421.514.664.741v19.097c-.214-.274-.422-.549-.664-.823-.241-.275-.449-.549-.707-.84v-19.015c.187.192.359.397.516.615.06.077.126.159.191.225ZM152.688 27.445V65.41c-.159.258-.307.5-.434.74a3.33 3.33 0 0 0-.548 1.099c-.1.28-.219.554-.356.818v.033-41.516c.462.26.909.548 1.338.861ZM151.35 110.774c.482.326.935.693 1.354 1.098v17.258c-.45.418-.899.835-1.354 1.241v-19.613.016ZM151.35 164.625c.455.483.921.971 1.354 1.487v19.092a8.83 8.83 0 0 0-.433-.368 12.246 12.246 0 0 1-.921-.944v-19.284.017ZM155.43 29.641v31.531c-.291.44-.598.873-.905 1.323-.143.198-.274.406-.401.598 0 .033-.049.066-.065.1V28.471l.065.05c.192.142.384.307.549.466.268.209.515.45.757.653ZM155.249 114.177c.065.066.131.132.181.193v11.884c-.149.143-.291.302-.439.45-.274.308-.549.626-.867.933 0 0-.033.05-.065.066v-14.574c0 .033.049.049.065.066.368.335.741.659 1.125.982ZM155.429 147.63v59.784c-.324.033-.631.05-.938.066a2.498 2.498 0 0 1-.367 0h-.066v-1.872l.066-.066c.185-.192.352-.402.499-.625.293-.405.482-.877.548-1.373a8.89 8.89 0 0 0 .132-1.438v-3.063c0-.988-.033-1.982-.033-2.964a12.254 12.254 0 0 0-.093-1.713 13.277 13.277 0 0 1-.099-1.691c0-.615.033-1.163.082-1.647.049-.483.06-1.015.06-1.548a3.761 3.761 0 0 0-.915-2.711l-.192-.192-.066-.066v-38.497a.125.125 0 0 1 .066-.066c.217-.127.458-.209.707-.242.203-.043.395-.043.609-.076ZM158.166 33.215v23.11c-.368.873-.806 1.73-1.256 2.563-.033.066-.082.116-.115.182V31.217c.514.624.973 1.293 1.371 1.998ZM157.086 116.176c.356.406.724.806 1.096 1.213v6.548c-.259.14-.507.302-.74.484-.208.175-.417.367-.63.548v-9.112c.082.11.18.225.274.319ZM156.796 147.481c.455-.059.912-.096 1.371-.109v59.642c-.368.043-.724.093-1.097.159a1.312 1.312 0 0 0-.291.049l.017-59.741ZM160.908 42.393v3.716a28.679 28.679 0 0 1-.921 5.583c-.143.4-.291.823-.45 1.224v-16.88c.052.104.094.213.126.324a20.523 20.523 0 0 1 1.245 6.033ZM160.245 119.776c.356.435.585.959.663 1.516v.839a2.172 2.172 0 0 1-.542.681 2.172 2.172 0 0 1-.763.417s-.049 0-.066.033v-4.391c.225.307.45.598.708.905ZM159.97 147.289c.324-.033.631-.066.938-.082v59.499l-.548.05c-.275.027-.549.06-.823.076v-59.51c.208-.016.351-.016.433-.033ZM163.645 147.015v59.417c-.45.049-.9.093-1.355.126v-59.444c.258-.033.499-.05.74-.066.242-.017.384-.033.615-.033ZM164.346 80.182v15.963c-.11-.55-.225-1.098-.34-1.647-.116-.549-.159-.972-.209-1.455a21.637 21.637 0 0 1 0-4.984c.003-.118.014-.235.033-.351.082-1.197.148-2.372.148-3.568.016-1.188.113-2.373.291-3.546.016-.14.041-.277.077-.412ZM166.386 146.757v59.433c-.181.05-.373.077-.549.11-.258.033-.499.049-.746.066h-.076v-59.45l.822-.06a.255.255 0 0 1 .11 0l.439-.099ZM167.834 172.189a3.74 3.74 0 0 0-.082.615v-3.184c0 .373.049.741.082 1.098.074.487.074.983 0 1.471ZM167.752 179.353v-3.695c.049.308.082.632.132.966.054.912.01 1.827-.132 2.729ZM168.624 204.56c.356.45.466.757.323.916a.783.783 0 0 1-.323.264c-.238.11-.495.175-.757.192a.279.279 0 0 0-.115 0v-2.662c.02.083.047.163.082.241.238.353.497.692.773 1.016l.017.033ZM167.089 70.778v33.87c-.165-.324-.324-.648-.499-.966a12.359 12.359 0 0 1-.872-2.053V74.533a41.327 41.327 0 0 1 1.371-3.755ZM168.624 146.367a2.97 2.97 0 0 1 .499 0v1.746a4.223 4.223 0 0 0-.499.609 5.294 5.294 0 0 0-.581 2.563 11.795 11.795 0 0 0-.033 3.261c.134 1.076.161 2.163.082 3.244a140.338 140.338 0 0 0-.34 5.111v-16.468c.287-.058.579-.085.872-.082v.016ZM169.825 65.146v44.387a14.827 14.827 0 0 0-.548-.807 8.354 8.354 0 0 1-.659-1.032 1.884 1.884 0 0 1-.18-.307V67.715c.065-.115.115-.241.18-.373.368-.724.774-1.471 1.207-2.196ZM172.566 60.727v52.583a13.408 13.408 0 0 1-1.146-1.328 2.502 2.502 0 0 1-.225-.308V62.857c.083-.126.159-.241.225-.351.274-.456.549-.873.79-1.273.115-.165.225-.34.356-.506ZM174.38 146.499a.83.83 0 0 1 .241-.242v1.016a.529.529 0 0 1-.082-.116c-.247-.274-.312-.499-.159-.658ZM174.309 203.885a3 3 0 0 0 .291-.374v2.064a.771.771 0 0 1-.192 0c-.548 0-.839 0-.839-.099-.148-.269.099-.801.74-1.591ZM175.303 57.571V115.5a9.4 9.4 0 0 1-1.371-.949V59.147c.42-.557.878-1.083 1.371-1.576ZM176.575 145.824c.258-.033.548-.083.789-.132v59.675l-.948.098c-.143 0-.291.028-.417.028v-59.609c.23-.017.422-.049.576-.06ZM178.044 55.342v20.805a266.758 266.758 0 0 1-1.179 6.423 20.735 20.735 0 0 0-.192 1.707V56.34a12.227 12.227 0 0 1 1.371-.999ZM177.589 96.145c.09.817.242 1.627.455 2.42v18.324a10.725 10.725 0 0 1-1.371-.615V88.888c0 .181.033.34.049.516.274 2.163.56 4.402.867 6.74ZM179.771 145.242l.307-.05v59.785c-.373.066-.79.132-1.256.198a.279.279 0 0 0-.115 0v-59.741c.356-.05.707-.126 1.064-.192ZM180.781 53.794v13.938c-.243.417-.463.848-.658 1.29a26.018 26.018 0 0 0-.713 1.79V54.485c.455-.258.921-.5 1.371-.692ZM179.41 101.953c.396.721.854 1.407 1.371 2.047v13.663c-.4-.082-.79-.165-1.162-.258a1.08 1.08 0 0 1-.209-.066v-15.386ZM181.45 145.017c.454-.036.91-.047 1.366-.033v59.543c-.459.035-.915.1-1.366.192v-59.702ZM183.518 52.647V63.73c-.126.176-.258.34-.384.516a21.4 21.4 0 0 0-.982 1.323V53.163c.335-.126.658-.258.982-.368l.384-.148ZM183.154 106.492c.122.111.25.214.384.308v11.22c-.126 0-.257 0-.384-.027-.34-.033-.658-.066-.981-.116v-12.312c.274.274.548.549.839.79.022.049.071.082.142.137ZM185.168 144.918l.389-.05v59.642a2.806 2.806 0 0 1-.389 0h-.981v-59.493c.328-.017.656-.05.981-.099ZM186.259 51.857v9.42a2.909 2.909 0 0 0-.307.18h-.033c-.36.224-.704.472-1.031.742v-9.97h.033c.356-.098.68-.175.998-.257l.34-.115ZM185.897 108.068c.112.033.225.059.34.077v9.968a2.411 2.411 0 0 1-.34 0h-.691a2.411 2.411 0 0 1-.34 0v-10.452a7.24 7.24 0 0 0 1.031.407ZM188.293 166.947a64.443 64.443 0 0 0-.291 5.489 13.29 13.29 0 0 0 .099 1.806c.066.605.099 1.214.099 1.822-.082.615-.148 1.23-.198 1.839-.041.608-.03 1.217.033 1.823a13.32 13.32 0 0 1-.076 1.339l-.05.439c-.085.588-.129 1.18-.131 1.773a6.517 6.517 0 0 0 .148 1.532c.02.056.031.116.033.176a5.21 5.21 0 0 1 0 1.465 1.404 1.404 0 0 0 0 .275c-.083 1.048-.099 2.13-.083 3.211.033 1.205 0 2.411-.098 3.612a31.463 31.463 0 0 1-.209 3.552 8.732 8.732 0 0 0 .373 3.496v.05c.092.287.203.568.335.84v2.431c-.057.033-.115.06-.176.083l-.159.049a9.375 9.375 0 0 1-1.031.275V144.66c.351-.066.691-.099 1.031-.132.11 0 .225-.027.335-.027l.016 22.446ZM188.995 51.407v8.783c-.266.058-.53.129-.789.214a1.645 1.645 0 0 0-.242.093c-.109.05-.224.082-.334.132v-9.074c.095-.03.192-.053.291-.066h.043l1.031-.082ZM188.014 108.403c.326.03.655.03.981 0v9.578c-.367.033-.707.05-1.031.077h-.334v-9.683h.334l.05.028ZM190.903 148.513c.05.05.083.099.132.149v19.673c-.082-.126-.181-.241-.274-.367a9.198 9.198 0 0 0-.757-.78 6.978 6.978 0 0 0-.34-.302v-20.387c.093.255.207.503.34.741.243.462.545.89.899 1.273ZM191.737 51.181v8.783a6.47 6.47 0 0 0-.981-.032h-.39v-8.635l.39-.033.981-.083ZM190.756 108.139c.333-.061.661-.147.981-.258v9.881c-.34 0-.663.049-.981.082l-.39.033v-9.65c.132-.021.262-.051.39-.088ZM192.79 150.709c.324.434.647.856.982 1.29v19.657a34.943 34.943 0 0 1-.982-1.158c-.082-.099-.175-.192-.258-.307a.717.717 0 0 1-.126-.132v-19.833c.041.038.078.08.11.126.099.116.175.242.274.357ZM194.473 50.956v9.881a7.856 7.856 0 0 0-1.031-.45 1.288 1.288 0 0 0-.335-.099V51.05l1.366-.094ZM193.716 107.113l.757-.434v10.836c-.466.049-.932.082-1.366.115v-10.243c.209-.077.401-.176.609-.274ZM196.316 155.128c.06.082.142.143.208.225v19.141c-.455-.466-.905-.933-1.371-1.399v-19.394c.373.488.746.977 1.163 1.427ZM197.216 50.731v12.126c-.42-.447-.879-.857-1.371-1.224V50.841l1.371-.11ZM195.845 105.696c.487-.362.945-.762 1.371-1.196v12.757c-.275.033-.549.066-.806.082l-.549.05-.016-11.693ZM198.411 157.543c.262.342.542.67.839.983v19.064a19.6 19.6 0 0 0-1.371-1.646v-19.043c.194.2.371.415.532.642ZM199.951 50.5v16.013a14.825 14.825 0 0 0-1.365-2.113V50.616l1.365-.115ZM198.586 102.891a17.85 17.85 0 0 0 1.365-2.146v16.237c-.466.05-.915.099-1.365.132v-14.223ZM200.653 159.964c.45.467.899.955 1.338 1.455v19.108c-.132-.126-.274-.241-.422-.367a18.653 18.653 0 0 1-.949-.923v-19.306l.033.033ZM202.693 50.292v23.873a2.955 2.955 0 0 0-.082-.406c-.049-.192-.099-.4-.143-.593a28.54 28.54 0 0 0-1.146-3.727V50.408l1.146-.1.225-.016ZM202.468 93.79c.077-.384.159-.774.225-1.142v24.065h-.225c-.389.05-.773.083-1.146.132V97.709c.046-.092.084-.187.115-.285.413-1.19.757-2.404 1.031-3.634ZM204.728 142.964v59.757c-.074.019-.149.03-.225.033-.229.033-.46.049-.691.049a3.837 3.837 0 0 1-.455 0v-1.839a5.61 5.61 0 0 0 .598-.724c.266-.362.452-.775.548-1.214 0-.049 0-.093.033-.142.076-.476.112-.957.11-1.438v-3.08c0-.983-.033-1.965-.033-2.964a9.435 9.435 0 0 0-.099-1.696 11.244 11.244 0 0 1-.082-1.691c0-.615 0-1.164.066-1.68v-.241c.033-.401.049-.84.065-1.29a4.115 4.115 0 0 0-.065-.807 3.415 3.415 0 0 0-.872-1.905c-.077-.094-.176-.176-.274-.275v-38.425c.229-.175.502-.281.789-.308l.357-.049c.071-.055.148-.055.23-.071ZM205.43 50.067v66.356h-.175c-.401.043-.79.076-1.174.126V50.182l1.19-.098.159-.017ZM207.284 142.722h.181v59.631a1.094 1.094 0 0 0-.181 0c-.307.049-.593.082-.883.132a1.512 1.512 0 0 0-.307.049v-59.73l1.19-.082ZM208.172 49.842v66.273l-.872.093-.499.05V49.952l.499-.05.872-.06ZM209.335 142.612l.872-.082v59.477l-.549.05c-.109 0-.224 0-.34.027-.115.028-.334.033-.499.066v-59.505c.225 0 .373 0 .455-.033h.061ZM210.909 49.617v66.207l-.823.099c-.183.01-.366.031-.548.06v-66.25l.548-.05.823-.066ZM212.334 142.387l.614-.049v59.433c-.274.033-.548.05-.822.077l-.549.049v-59.46c.192 0 .368 0 .549-.033a.852.852 0 0 1 .208-.017ZM213.649 49.403v66.13l-1.371.143V49.507l1.371-.104ZM215.268 142.173c.14-.009.28-.031.416-.066v59.423a5.346 5.346 0 0 1-1.272.159h-.099v-59.45c.308-.033.648-.066.955-.066ZM217.154 167.512a5.865 5.865 0 0 0-.093.725v-3.689c0 .499.065.999.109 1.482.069.492.064.992-.016 1.482ZM217.055 174.802v-3.952c.065.356.109.713.159 1.097.06.955.006 1.913-.159 2.855ZM217.938 199.866c.373.467.488.774.324.95-.165.176-.516.39-1.097.439a.297.297 0 0 0-.126 0v-2.745c0 .099.066.209.093.324.181.242.439.582.806 1.032ZM216.387 49.167v66.059c-.45.066-.9.115-1.371.148V49.277l1.371-.11ZM217.521 141.723c.301-.033.604-.033.905 0v1.779a4.787 4.787 0 0 0-.472.592 5.15 5.15 0 0 0-.592 2.564 11.302 11.302 0 0 0-.033 3.244c.137 1.074.163 2.16.077 3.239a125.052 125.052 0 0 0-.351 5.599v-16.951a4.05 4.05 0 0 1 .466-.066ZM219.129 48.942v12.384c-.066 0-.132 0-.214-.033-.658-.093-.998.225-1.015.983-.016.757-.109 1.405-.142 2.096v-15.32l1.371-.11ZM217.758 74.616c.466-.033.916-.083 1.371-.143V86.73c-.313.058-.621.139-.922.241a1.248 1.248 0 0 0-.449.291V74.616ZM217.758 102.309l1.371-.148v12.774l-1.371.148v-12.774ZM221.864 48.733v12.269h-.066c-.416.082-.833.165-1.255.258h-.05V48.854l1.305-.093.066-.028ZM221.798 74.182a.1.1 0 0 1 .066 0v12.351h-.066a1.425 1.425 0 0 1-.274 0c-.334 0-.691.033-1.031.066V74.325l1.305-.143ZM221.798 101.826a.094.094 0 0 0 .066 0v12.834h-.066l-1.305.149v-12.824a.61.61 0 0 0 .181 0l1.124-.159ZM223.838 141.355s.049 0 .06-.033v1.581l-.06-.066c-.066-.049-.115-.115-.181-.159a.808.808 0 0 1-.274-.823c.065-.165.131-.242.181-.242.101-.075.193-.162.274-.258ZM223.838 198.834c0-.033.05-.049.06-.082v2.048h-.515c-.625 0-.834-.231-.609-.632.239-.403.53-.772.867-1.098.07-.074.136-.153.197-.236ZM224.606 48.503V60.81a8.598 8.598 0 0 1-.921.033h-.433V48.618l1.354-.115ZM224.59 73.809v12.79a2.614 2.614 0 0 0-.499-.05 7.576 7.576 0 0 1-.856-.033V73.99c.45-.05.9-.115 1.355-.181ZM224.59 101.387v12.955l-.921.093-.434.05v-12.889c.34-.044.675-.094 1.015-.159l.34-.05ZM226.624 140.883v59.691c-.45.05-.905.099-1.354.132v-59.79h.323c.373-.033.707-.033 1.031-.033ZM227.343 48.228v12.406l-.675.05h-.033l-.663.043v-12.35c.225 0 .438-.05.663-.067.225-.016.483-.049.708-.082ZM226.635 73.485c.243-.058.48-.14.708-.242v15.195a1.45 1.45 0 0 1-.598.433c-.033-.093-.077-.175-.11-.274-.131-.302-.241-.593-.373-.867a1.215 1.215 0 0 0-.29-.423v-13.69l.307-.05c.131-.01.241-.05.356-.082ZM226.635 101.179c.235-.033.471-.05.708-.05v12.922c-.225.033-.466.05-.708.077-.241.027-.438.049-.663.066v-12.966l.663-.049ZM228.67 140.806c.241 0 .466-.049.707-.049V200.3l-.707.06c-.225 0-.433.033-.658.066v-59.57c.225-.017.433-.05.658-.05ZM230.084 47.91v12.532h-.23c-.145.003-.29.014-.434.033-.225 0-.466 0-.707.05v-12.44l.707-.098c.225-.017.433-.044.664-.077ZM229.42 71.876a2.03 2.03 0 0 1 .664-.422v6.422a58.603 58.603 0 0 1-.664 2.657c-.142.615-.307 1.23-.482 1.839l-.225.955V72.458c.251-.174.488-.369.707-.582ZM229.42 101.003c.225 0 .433 0 .664-.033v12.79c-.214 0-.439.033-.664.066-.225.033-.466.044-.707.06v-12.834c.241 0 .504-.016.707-.049ZM231.455 140.581c.231 0 .439-.049.664-.066v59.511c-.225 0-.433.049-.664.065l-.707.083v-59.516c.225-.016.466-.044.707-.077ZM232.82 47.57v12.658c-.449.05-.915.082-1.354.115V47.756c.449-.071.905-.137 1.354-.187ZM231.741 100.855c.367.003.733-.018 1.097-.061v12.758l-1.355.093v-12.774c.087.002.173-.003.258-.016ZM233.507 140.29c.449-.082.899-.148 1.349-.208v59.686c-.45.033-.9.082-1.349.131V140.29ZM235.557 47.36v12.566c-.433.044-.883.11-1.3.16h-.066V47.46h.066c.444-.05.867-.083 1.3-.1ZM234.258 100.52c.447-.11.882-.262 1.3-.456v13.175a.823.823 0 0 1-.192.066 9.669 9.669 0 0 1-1.097.175h-.066v-12.944l.055-.016ZM237.597 139.84v59.653c-.433.049-.871.082-1.305.132h-.065v-59.692h.065c.434-.049.872-.082 1.305-.093ZM238.299 47.394v12.773a4.471 4.471 0 0 0-1.371-.307V47.312c.245-.028.493-.039.74-.033.216-.008.431.031.631.115ZM237.383 99.065c.342-.177.652-.41.916-.691v9.271c-.143.856-.291 1.713-.417 2.58a5.667 5.667 0 0 1-.713 1.971c-.062.111-.143.21-.241.291v-13.13l.455-.292ZM240.334 139.708v11.369a3.012 3.012 0 0 1-1.349.033v-11.352l1.349-.05ZM240.333 162.852v11.066l-.707.06a4.051 4.051 0 0 0-.658.099V163c.449-.033.916-.083 1.365-.148ZM238.968 187.998c.449-.049.899-.098 1.365-.164v11.429c-.449.032-.916.065-1.365.115v-11.38ZM239.988 100.97a8.02 8.02 0 0 0-.318.659v-4.255a.799.799 0 0 1 .592-.098c.258.066.373.422.373 1.098a5.701 5.701 0 0 1-.647 2.596ZM241.035 58.647v2.695c-.241.148-.658.05-1.206-.258a1.393 1.393 0 0 1-.159-.099V51.94c.048.294.112.586.192.873.241.95.433 1.916.598 2.92.162.413.26.848.29 1.29.028.44.086.876.176 1.307.048.101.085.208.109.318ZM243.076 139.582v11.111c-.459.013-.917.055-1.371.126v-11.176c.45 0 .905-.033 1.371-.061ZM243.076 162.528v11.357c-.274 0-.548 0-.855-.033a4.038 4.038 0 0 1-.516 0v-11.143c.466-.066.921-.115 1.371-.181ZM241.705 187.658c.466-.066.921-.132 1.371-.209v11.561c-.466.033-.921.066-1.371.115v-11.467ZM245.812 139.368v11.176c-.45.05-.916.083-1.366.116v-11.144h.044c.439-.049.889-.088 1.322-.148ZM245.812 162.078v13.696a39.04 39.04 0 0 0-.335-.807 1.645 1.645 0 0 0-.773-.774 1.992 1.992 0 0 0-.258-.116v-11.758l1.042-.143c.113-.014.222-.048.324-.098ZM244.446 187.241c.45-.05.9-.099 1.366-.132v11.643c-.45.033-.916.066-1.366.115v-11.626ZM248.554 46.11v1.372c-.148-.176-.291-.324-.422-.467a.645.645 0 0 1-.127-.165.288.288 0 0 1 0-.258c.033-.153.225-.329.549-.483ZM248.554 139.066v11.286c-.181 0-.357 0-.549.033l-.822.05v-11.21l.822-.098c.176-.017.368-.05.549-.061ZM248.554 160.48v7.136c-.181.708-.357 1.4-.549 2.114-.033.142-.082.274-.115.417a34.94 34.94 0 0 0-.4 1.729c-.099.417-.192.834-.307 1.29v-11.621c.29-.18.565-.384.822-.609.11-.083.209-.181.324-.275.069-.066.145-.127.225-.181ZM248.005 186.983c.176 0 .368 0 .549-.033v11.528l-.549.049-.822.082v-11.582c.274-.017.548-.017.822-.044Z"/><path d="M249.256 45.813v48.855a28.664 28.664 0 0 1-.499-2.064 33.559 33.559 0 0 1-.631-6.307c0-2.448.066-4.87.132-7.273.065-2.405.126-4.82.142-7.274.033-2.355 0-4.693-.049-6.999a64.708 64.708 0 0 1 .197-7.032c.098-1.095.107-2.197.028-3.293a30.695 30.695 0 0 0-.335-3.245c-.082-.4-.181-.84-.307-1.29 0-.049 0-.098-.049-.131v-3.843c.219-.038.441-.064.663-.077h.209c.203-.01.334-.027.499-.027ZM251.291 138.726v11.434a4.61 4.61 0 0 0-.499.033c-.291.033-.581.05-.872.066V138.88c.066 0 .148 0 .214-.033.225-.033.433-.05.658-.077l.499-.044ZM250.792 186.802c.159 0 .34 0 .499-.033v11.527a5.182 5.182 0 0 0-.499.033c-.307 0-.581.033-.872.066v-11.527c.164 0 .34 0 .504-.033.124-.003.246-.014.368-.033ZM251.991 45.714v55.64c-.446-.73-.843-1.49-1.19-2.272a2.43 2.43 0 0 1-.175-.401V45.747h.175c.434-.017.823-.033 1.19-.033ZM254.031 138.501v11.357c-.389.066-.79.116-1.195.148a.577.577 0 0 1-.176 0v-11.412h.176c.405-.049.789-.077 1.195-.093ZM252.836 186.478a8.046 8.046 0 0 0 1.195-.434v11.874a4.058 4.058 0 0 1-.34.109 7.077 7.077 0 0 1-.855.149 1.034 1.034 0 0 1-.176 0v-11.649l.176-.049ZM254.733 45.472v59.45a14.933 14.933 0 0 1-1.146-1.29c-.077-.098-.159-.197-.225-.291V45.648l.225-.033 1.146-.143ZM256.768 138.803v11.527a1.58 1.58 0 0 1-.323-.241 4.33 4.33 0 0 0-.817-.242 1.129 1.129 0 0 0-.231-.033v-11.379h.39a1.293 1.293 0 0 1 .981.368ZM256.368 184.546c.126-.132.274-.242.4-.357v6.373c-.109.549-.224 1.098-.307 1.674-.159 1.016-.318 2.037-.482 3.052a6.426 6.426 0 0 1-.351 1.208c-.06.163-.138.32-.231.467V185.27a.405.405 0 0 0 .116-.066.572.572 0 0 0 .115-.06c.273-.165.522-.366.74-.598ZM258.463 184.578c-.01.6-.12 1.193-.323 1.757v-2.745c.208.066.323.39.323.988ZM259.105 149.644a1.93 1.93 0 0 1-.082 1.257c-.11.324-.417.39-.883.192v-5.917c.065.291.109.598.159.889.145.376.232.772.257 1.175.033.417.099.807.165 1.18a9.7 9.7 0 0 1 .384 1.224ZM257.47 45.33v61.964a15.81 15.81 0 0 1-1.366-1.098V45.374a3 3 0 0 1 .384 0c.324-.017.664-.028.982-.044ZM260.212 45.011v63.897a9.825 9.825 0 0 1-1.371-.709V45.198c.274-.033.548-.082.822-.126.275-.044.368-.06.549-.06ZM261.731 163.302c.132-.966.307-1.933.516-2.899v17.204c-.159-.692-.308-1.4-.417-2.124a40.475 40.475 0 0 1-.099-12.181ZM262.948 44.858v1.356l-.05.065a5.89 5.89 0 0 0-1.096 3.13 24.637 24.637 0 0 0 .033 3.145c0 1.273 0 2.53.076 3.787.072 1.22.061 2.444-.033 3.662-.195 2.4-.22 4.81-.076 7.213a50.032 50.032 0 0 1-.066 7.076c0 1.18 0 2.305.082 3.387.074 1.139.063 2.282-.033 3.42a18.482 18.482 0 0 0-.214 2.678V44.803a5.012 5.012 0 0 1 1.377.055ZM261.841 88.163c.163 1.49.532 2.949 1.096 4.337v17.357a13.458 13.458 0 0 1-1.371-.406V84.936c.034 1.08.125 2.157.275 3.227ZM263.617 155.145c.384-1.247.842-2.47 1.371-3.662v33.595a27.111 27.111 0 0 1-1.371-2.937v-26.996ZM265.689 96.677v13.658l-.389-.05-.982-.142V95.212c.291.407.619.786.982 1.13l.389.335ZM267.341 146.883l.383-.626v43.19c-.126-.175-.257-.34-.383-.516-.033-.032-.05-.082-.083-.115-.323-.433-.63-.867-.904-1.317v-38.87a20.9 20.9 0 0 1 .729-1.34c.074-.142.16-.278.258-.406ZM268.427 98.165v12.417c-.11 0-.225 0-.34-.033-.351 0-.691-.033-1.031-.066V97.567c.261.138.531.263.806.373.082.027.148.06.225.093.11.05.224.094.34.132ZM270.126 143.046l.34-.384v50.09c-.116-.11-.231-.241-.34-.351-.34-.357-.68-.741-1.031-1.164v-46.934c.323-.434.702-.851 1.031-1.257ZM271.169 98.308v12.175c-.34.049-.68.082-1.031.099h-.34v-12.16c.113.01.227.01.34 0 .347.002.693-.037 1.031-.114ZM272.172 140.9c.34-.319.675-.643 1.031-.934v54.307a8.317 8.317 0 0 0-.757-.308 1.935 1.935 0 0 1-.274-.115l-.34-.143v-52.484c.066-.065.148-.142.208-.208a.594.594 0 0 1 .132-.115ZM273.904 97.05v12.736c-.323.099-.641.192-.981.274l-.324.099h-.066V97.825c.132-.05.258-.116.39-.176a.404.404 0 0 0 .126-.066l.855-.532ZM275.939 137.82v15.42c-.209.582-.417 1.18-.593 1.822-.131.45-.257.906-.389 1.356-.132.45-.274 1.032-.384 1.548V138.88c.126-.11.258-.209.384-.308.324-.285.664-.527.982-.752ZM274.974 178.804c.169.849.497 1.659.965 2.387v14.322a4.558 4.558 0 0 1-.741-.324 1.403 1.403 0 0 0-.241-.115l-.384-.192v-17.95c.126.615.258 1.207.384 1.789 0 .033.017.05.017.083ZM276.646 94.63v14.354c-.162.07-.329.129-.499.176-.29.082-.581.181-.872.258v-13.4c.504-.413.964-.879 1.371-1.388ZM278.681 136.135v11.61a2.973 2.973 0 0 0-.159.307c-.198.406-.406.791-.647 1.191-.242.401-.384.73-.549 1.098v-13.405c.422-.274.839-.549 1.272-.774l.083-.027ZM277.518 183.579c.35.533.739 1.039 1.162 1.515v11.029l-.614-.061a10.07 10.07 0 0 1-.756-.132v-12.674c.076.103.145.211.208.323ZM281.417 43.167v2.305a1.86 1.86 0 0 0-.548-.664 1.516 1.516 0 0 1-.549-.95c-.082-.257.094-.433.549-.548.181-.066.356-.1.548-.143ZM279.382 88.295v19.257l-.29.192c-.34.225-.708.433-1.097.631V92.423c.212-.38.395-.774.548-1.18.345-.875.603-1.782.774-2.706.029-.079.051-.16.065-.242ZM281.417 134.823v10.27c-.351.226-.674.473-1.031.714a3.667 3.667 0 0 0-.334.275v-10.677c.443-.221.899-.416 1.365-.582ZM280.984 186.901c.138.076.283.14.433.192v9.211c-.456.003-.912-.019-1.365-.066v-9.919c.294.218.606.413.932.582Z"/><path d="M282.125 43.002v62.579a4.367 4.367 0 0 1-.34.258c-.34.258-.691.516-1.031.758V43.134a7.822 7.822 0 0 1 1.371-.132ZM284.159 134.016v9.529a6.16 6.16 0 0 0-1.371.615v-9.804c.449-.142.907-.256 1.371-.34ZM284.159 187.526v8.783a2.411 2.411 0 0 1-.34 0h-1.031v-8.843c.453.075.913.095 1.371.06ZM284.861 42.733v60.833a1.128 1.128 0 0 1-.225.176c-.032 0-.049.049-.082.066l-1.047.774v-61.64c.389-.05.757-.082 1.146-.165.07-.01.14-.025.208-.044ZM286.896 133.758v9.661a1.115 1.115 0 0 0-.225-.066 3.773 3.773 0 0 0-1.141-.082v-9.447c.379-.047.76-.069 1.141-.066h.225ZM286.671 186.9l.225-.098v9.277c-.077 0-.143 0-.225.027-.384.05-.757.082-1.141.115v-8.92c.126-.033.274-.077.417-.126.241-.082.483-.181.724-.275ZM287.597 42.2v58.106c-.06.099-.11.181-.176.274-.175.242-.323.489-.482.73-.219.319-.455.625-.708.917V42.459c.11-.015.218-.037.324-.066.284-.08.574-.134.866-.165.059-.006.118-.015.176-.027ZM289.637 133.999v11.127a1.079 1.079 0 0 0-.176-.175 5.711 5.711 0 0 0-1.195-.939v-10.205c.405.033.789.094 1.195.16l.176.032ZM289.461 185.446a1.15 1.15 0 0 0 .176-.126v10.243a.871.871 0 0 0-.176.027c-.406.099-.79.181-1.195.247v-9.661c.405-.225.806-.472 1.195-.73ZM290.339 42.053v53.29c-.115.335-.242.676-.357 1.016a9.424 9.424 0 0 1-1.014 1.949V42.086h.499c.08-.009.161-.009.241 0 .115 0 .324-.017.631-.033ZM292.374 134.806v16.468l-.077.077a1.277 1.277 0 0 1-.789.423.656.656 0 0 1-.357 0c-.142 0-.142-.291 0-.922.113-.379.194-.766.241-1.158a4.945 4.945 0 0 0-.372-2.421s0-.05-.028-.066V134.34c.169.038.336.086.499.143.307.098.592.208.883.323ZM292.373 182.932v11.692c-.29.132-.548.242-.866.357-.165.066-.34.11-.499.175v-10.819c.175-.148.334-.275.499-.423.343-.275.636-.608.866-.982ZM293.075 41.86v41.758a36.015 36.015 0 0 1-.817 5.078c-.082.39-.181.774-.274 1.163-.093.39-.181.676-.274 1.032V41.926c.175 0 .367-.033.548-.033.181 0 .368 0 .549-.032h.268ZM295.116 136.223v12.729c-.274.209-.548.434-.823.659-.175.143-.372.291-.548.45v-14.656c.192.093.373.192.548.285.286.16.56.338.823.533ZM294.935 178.513a.704.704 0 0 1 .181-.033v14.547a8.291 8.291 0 0 1-.823.549c-.176.117-.36.225-.548.323v-13.613c.132-.291.258-.61.4-.983a.92.92 0 0 1 .148-.307c.146-.237.375-.409.642-.483ZM297.852 139.483v7.4c-.192.165-.401.307-.609.456l-.757.549v-10.386c.51.621.967 1.284 1.366 1.981ZM296.612 179.945c.434.582.856 1.148 1.24 1.713v8.613a6.3 6.3 0 0 0-.609.725 8.84 8.84 0 0 1-.757.872v-12.076a.977.977 0 0 0 .126.153ZM300.593 134.257v1.274a6.194 6.194 0 0 1-.806-.34c-.307-.127-.406-.258-.34-.368a.937.937 0 0 1 .45-.324 7.16 7.16 0 0 1 .696-.242ZM300.594 142.87v1.79c-.456.401-.905.79-1.371 1.175v-4.145l.098.148c.294.48.743.844 1.273 1.032ZM300.561 185.155l.033.033v3.502a3.751 3.751 0 0 0-1.371.467v-5.594l.724.966c.167.243.374.454.614.626ZM303.33 41.328v1.79a2.206 2.206 0 0 0-.274-.407c-.159-.159-.367-.318-.609-.516-.241-.197-.164-.384.258-.593.208-.098.417-.18.625-.274ZM302.233 187.109a.789.789 0 0 1 .05.84 1.73 1.73 0 0 1-.324.274v-1.531c.099.143.192.291.274.417ZM301.295 102.211v4.676a7.45 7.45 0 0 1-1.196-.192.59.59 0 0 1-.175-.066v-.598l.192-.285c.207-.371.44-.727.696-1.065.219-.305.331-.674.318-1.049.066-.466.115-.955.165-1.421ZM301.959 133.983c.455-.082.905-.159 1.371-.225v5.352a10.51 10.51 0 0 1-.691-1.29 8.241 8.241 0 0 0-.68-1.158v-2.679Z"/><path d="M304.032 40.828v65.95h-.06a20.75 20.75 0 0 1-1.305.093V41.103c.284-.083.574-.147.866-.192.145-.03.292-.052.439-.066a.08.08 0 0 0 .06-.017ZM306.773 40.472v65.916l-.904.148c-.143 0-.302.044-.45.061V40.62c.389-.05.757-.099 1.146-.132.06 0 .143 0 .208-.033v.017ZM308.792 133.258v13.598-.033c-.093-.149-.176-.291-.274-.439-.351-.549-.708-1.126-1.097-1.675v-11.418c.488-.016.938-.033 1.371-.033ZM309.51 40.197v65.982h-.707c-.242 0-.434 0-.658.05V40.296c.224-.033.449-.05.658-.066.208-.016.477-.033.707-.033ZM310.838 133.324a5 5 0 0 0 .713-.033v17.693a8.52 8.52 0 0 1-.647-.89c0-.033-.05-.066-.066-.093-.225-.324-.433-.664-.658-1.005v-15.688c.225.016.449.016.658.016ZM312.252 40.005v66.043c-.21.069-.427.113-.647.131-.234.034-.471.05-.708.05V40.137l.708-.05c.192-.016.417-.049.647-.082ZM314.286 133v21.596c-.225-.308-.45-.632-.658-.95l-.389-.582c-.11-.165-.225-.324-.324-.483v-19.454l.713-.11h.038c.204-.047.414-.052.62-.017ZM314.988 39.681v66.015a3.95 3.95 0 0 0-.883 0 4.168 4.168 0 0 0-.471.066V39.829l1.354-.148ZM316.315 139.094c.225.34.467.697.713 1.032v18.806a19.02 19.02 0 0 1-.29-.549 10.861 10.861 0 0 0-1.064-1.74v-18.499c.225.324.433.648.641.95ZM317.028 191.254v.45c-.181-.094-.181-.242 0-.45ZM316.409 105.356a.089.089 0 0 1-.066.033v-1.532.033c.013.043.03.086.049.127.112.277.198.563.258.856a.506.506 0 0 1-.241.483ZM317.73 39.357v11.325l-.548.05a4.073 4.073 0 0 1-.757 0h-.066v-11.21a.1.1 0 0 1 .066 0l.433-.05.872-.115ZM316.409 67.457c.449-.455.899-.856 1.305-1.262V80.55l-.631.74a8.14 8.14 0 0 0-.674 1.005.393.393 0 0 0-.066.11V67.518l.066-.06ZM319.764 143.935v47.785c-.43.082-.867.132-1.305.148h-.065v-2.547a.91.91 0 0 0 .065-.197 4.094 4.094 0 0 0 .225-1.532c0-.79-.033-1.564-.033-2.322.033-2.13.148-4.26.357-6.368.203-2.07.245-4.153.126-6.23a20.963 20.963 0 0 1 .099-4.677c.207-1.55.24-3.119.098-4.677a3.46 3.46 0 0 0-.548-1.597c-.099-.159-.208-.335-.324-.5 0-.027-.049-.06-.065-.093v-19.114c0 .033.049.066.065.099.434.609.889 1.207 1.305 1.822ZM320.467 39.072v11.286c-.466.082-.933.148-1.371.198V39.198a29.6 29.6 0 0 1 1.371-.126ZM319.6 64.455c.302-.291.592-.582.867-.857v14.229c-.384.384-.774.757-1.141 1.098-.086.065-.163.14-.23.225V64.877a3.12 3.12 0 0 0 .504-.422ZM321.136 145.851c.466.664.916 1.323 1.365 1.987v43.481c-.457.012-.913.054-1.365.127v-45.595ZM323.209 38.841v11.11a5.87 5.87 0 0 0-1.229.143c-.043 0-.093 0-.142.033V38.94l1.371-.099ZM323.192 60.585v21.304a392.42 392.42 0 0 0-1.371-5.078V62.15c.499-.5.933-1.015 1.371-1.564ZM325.21 151.593h.033v39.693a7.483 7.483 0 0 1-1.371.066v-41.494a.994.994 0 0 1 .115.165c.189.276.355.566.499.867.147.316.405.566.724.703ZM325.944 38.567v12.077a3.567 3.567 0 0 0-.899-.418l-.472-.148v-11.33c.46-.037.918-.097 1.371-.181ZM325.22 58.186c.258-.258.499-.5.724-.774v35.225c-.274-1.191-.598-2.454-.916-3.76-.148-.576-.307-1.142-.455-1.707V58.905c.214-.242.422-.483.647-.72ZM326.613 149.919c.433-.807.867-1.598 1.366-2.372v43.481l-1.366.149v-41.258ZM328.687 38.133v66.164c-.181 0-.373-.033-.548-.033h-.165c-.22.003-.44-.011-.658-.044V38.358c.275-.06.549-.093.823-.142.175-.033.367-.05.548-.083ZM330.172 144.127c.192-.307.39-.631.549-.933v47.384a5.386 5.386 0 0 1-.549.11c-.1.03-.203.052-.307.066a6.236 6.236 0 0 0-.515.099v-45.436c.131-.208.29-.433.438-.642.141-.208.269-.424.384-.648ZM332.252 190.013l-.159.11v-.741c.318.274.367.483.159.631ZM331.423 37.875v66.531h-.499a3.914 3.914 0 0 1-.631-.033c-.077 0-.159 0-.241-.033V37.92c.289-.034.58-.05.872-.05.159.005.34.005.499.005ZM332.959 139.352c.148-.244.315-.475.499-.692v18.334l-.241.335c-.093.132-.176.242-.258.374-.32.454-.609.929-.866 1.421v-18.482c.175-.275.367-.549.548-.818.11-.165.219-.308.318-.472ZM334.165 38.298v24.828c-.165.209-.307.407-.455.599a7.218 7.218 0 0 1-.741.916 1.8 1.8 0 0 1-.175.198V37.941h.175c.407.09.806.21 1.196.357ZM332.969 71.437c.373 1.307.757 2.745 1.196 4.342v28.095a8.12 8.12 0 0 0-1.196.241l-.175.05V70.811c.066.209.11.418.175.626ZM335.875 134.856c.115-.198.209-.373.324-.549v18.4c-.406.631-.79 1.29-1.196 1.938v.033c-.05.089-.105.175-.164.258v-18.373a2.46 2.46 0 0 0 .175-.384c.204-.49.496-.939.861-1.323ZM336.901 39.615V59.68a38.54 38.54 0 0 1-1.096 1.537h-.033c-.077.082-.159.181-.225.258V38.841c.082.033.148.083.225.116.395.185.773.405 1.129.658ZM336.303 84.65c.209.758.423 1.482.598 2.157v16.825c-.389.033-.773.061-1.146.077a1.058 1.058 0 0 0-.225 0V81.752c.066.335.148.659.225.999.165.653.34 1.284.548 1.9ZM338.859 130.239h.077v18.181l-.625 1.016a15.76 15.76 0 0 0-.516.774c-.082.109-.148.225-.225.334v-20.239h.225c.516-.033.867-.049 1.064-.066ZM339.638 42.377v12.158a18.974 18.974 0 0 1-.658 1.581c-.241.533-.466.923-.708 1.34V40.68a6.933 6.933 0 0 1 1.366 1.697ZM339.079 93.987c.192.385.384.758.548 1.142v8.372c-.466.033-.916.033-1.365.033V91.633c.209.805.482 1.593.817 2.355ZM340.306 130.162c.466 0 .921-.033 1.371-.082v13.548c-.467.807-.938 1.614-1.371 2.404v-15.87ZM342.38 100.761v2.531a9.725 9.725 0 0 1-1.371.159v-5.193c.082.23.181.472.258.714.28.648.655 1.251 1.113 1.789ZM343.191 129.998c.4-.033.806-.05 1.223-.094v9.481c-.291.439-.548.872-.823 1.29-.175.274-.367.548-.548.839v-11.527c.049.027.099.011.148.011ZM343.751 102.968v-1.065c.225.126.43.286.609.472.148.176-.061.385-.609.593ZM347.156 129.679v5.21c-.049.044-.082.11-.132.159a8.688 8.688 0 0 0-.899 1.449c-.115.214-.225.439-.34.664v-7.372c.45-.033.905-.066 1.371-.11ZM349.892 129.323v1.822a8.739 8.739 0 0 0-.384.401c-.345.39-.638.824-.872 1.29-.033.066-.082.131-.11.181v-3.519a2.83 2.83 0 0 0 .368-.049c.208 0 .406-.061.614-.077.125-.033.254-.049.384-.049ZM352.052 129.904c-.179.274-.455.47-.773.549v-1.24a.958.958 0 0 1 .384.033c.19.025.376.081.548.164.116.088.066.236-.159.494Z"/></g><path d="M9.739 57.933c.307-.093.58-.164.828-.214.15-.04.301-.07.455-.093.903-.206 1.82-.354 2.742-.445a42.045 42.045 0 0 1 2.741-.17c1.646-.03 3.29 0 4.936.088.362 0 .548.148.636.357.06.26.06.53 0 .79a3.727 3.727 0 0 1-.33.955c-.124.252-.234.51-.328.774a20.835 20.835 0 0 0-.878 5.226c-.084 1.83-.162 3.583-.235 5.26-.143 1.8-.209 3.63-.198 5.488 0 1.856 0 3.678-.099 5.49-.098 1.811-.257 3.606-.334 5.407-.077 1.8-.132 3.59-.148 5.385-.017 1.795 0 3.585.038 5.369.039 1.784 0 3.579-.06 5.379-.06 1.801-.175 3.618-.285 5.446a66.765 66.765 0 0 0-.104 5.429c0 .806 0 1.591.07 2.354.072.763.072 1.587.067 2.449 0 .313.071.477.225.494l.685.071a18.44 18.44 0 0 1 1.376-.082c.428-.011.883-.039 1.371-.088a51.027 51.027 0 0 0 10.49-1.581 69.933 69.933 0 0 0 2.074-.615c.717-.227 1.409-.525 2.067-.889.428-.291.74-.412.921-.368a.49.49 0 0 1 .362.335c.061.245.061.501 0 .747-.066.312-.132.598-.192.85l-.548 2.465c-.21.847-.476 1.68-.795 2.492-.192.697-.4 1.395-.62 2.103a10.214 10.214 0 0 1-.987 2.124 2.005 2.005 0 0 1-1.382 1.016c-.548.082-1.135.181-1.75.302-.85.082-1.738.148-2.653.203-.916.055-1.804.126-2.66.208l-5.368.511a75.48 75.48 0 0 0-5.364.691c-.82.138-1.647.232-2.478.28-.838.049-1.67.174-2.484.374-.291.029-.58.073-.867.131-.349.061-.705.078-1.058.05a8.472 8.472 0 0 1-1.004-.132.623.623 0 0 1-.548-.461 1.263 1.263 0 0 1-.038-.878c.124-.285.265-.561.422-.829.21-.383.384-.786.515-1.202a6.64 6.64 0 0 0 .247-1.927c0-.922.033-1.867.077-2.827.044-.961.066-1.911.077-2.838v-5.369c0-1.789 0-3.584.098-5.385.169-4.391.26-8.739.275-13.043.014-4.303.106-8.65.274-13.042.08-2.167.133-4.348.159-6.544.025-2.195.11-4.391.252-6.587.132-1.125.263-2.245.4-3.37.131-1.08.173-2.169.126-3.256-.054-.488-.115-.927-.17-1.328a9.834 9.834 0 0 0-.263-1.224 2.93 2.93 0 0 0-.718-1.136c-.477-.604-.477-1.005-.06-1.17ZM43.24 70.51c.44-.229.928-.353 1.425-.363h1.42c.79-.071 1.558-.132 2.293-.17a19.43 19.43 0 0 0 2.292-.264 34.877 34.877 0 0 1 4.677-.488 216.88 216.88 0 0 0 4.678-.209 87.675 87.675 0 0 0 4.584-.549 37.95 37.95 0 0 1 4.59-.334c.549 0 .883.208.998.598.126.43.215.871.263 1.317.053.724.169 1.443.346 2.147.175.691.318 1.405.433 2.135.121.304.195.624.22.95.027.34.07.659.126.96.127.322.231.652.312.989.092.339.073.698-.055 1.026-.126.324-.477.324-1.058 0a6.451 6.451 0 0 1-1.042-.648 3.632 3.632 0 0 0-1.925-.23c-.674.093-1.343.17-2.018.236a59.56 59.56 0 0 1-2.341.175c-.768.044-1.541.1-2.336.17-.795.072-1.47.11-2.194.121a10.15 10.15 0 0 0-2.297.308 2.74 2.74 0 0 1-1.19 0c-.488-.077-.735.159-.74.713a61.331 61.331 0 0 0-.231 4.551c0 1.477-.06 2.992-.137 4.534 1.097-.104 2.193-.22 3.29-.357a90.728 90.728 0 0 0 3.208-.444 4.704 4.704 0 0 0 1.245-.434c.386-.22.744-.487 1.064-.796.493-.417.844-.494 1.053-.241a1.241 1.241 0 0 1 .126 1.141 62.753 62.753 0 0 1-.675 3.393 79.43 79.43 0 0 1-.86 3.409c-.127.5-.236.977-.335 1.416-.099.44-.209.911-.335 1.41-.066.32-.148.681-.241 1.099a1.154 1.154 0 0 1-.696.85c-.121-.29-.236-.548-.357-.84a1.317 1.317 0 0 0-.636-.63 2.049 2.049 0 0 0-.96-.237c-.334 0-.685 0-1.052-.038-.127 0-.4.027-.828.033-.428.005-.856.033-1.284.077-.391.03-.777.113-1.146.247a.675.675 0 0 0-.51.647c.039 1.784 0 3.552-.104 5.32-.104 1.767-.17 3.54-.192 5.324.856-.077 1.728-.17 2.616-.291.888-.12 1.76-.241 2.616-.384a21.178 21.178 0 0 1 2.741-.263 37.933 37.933 0 0 0 2.742-.165 7.273 7.273 0 0 0 4.14-1.318c.26-.143.493-.329.691-.548.238-.237.5-.447.785-.626a.908.908 0 0 1 .647-.159c.18.049.268.312.263.812a4.09 4.09 0 0 1-.477 1.905 6.71 6.71 0 0 0-.658 1.839 35.453 35.453 0 0 0-.488 2.481c-.132.834-.264 1.647-.39 2.465a4.28 4.28 0 0 1-.548 1.454c-.34.41-.814.686-1.338.78a8.597 8.597 0 0 1-1.557.197c-.549 0-1.097.055-1.558.099a1117.18 1117.18 0 0 0-20.46 1.938c-.348.018-.698.018-1.047 0-.548 0-.69-.181-.504-.505.19-.331.427-.634.702-.9.26-.251.463-.554.597-.89a5.2 5.2 0 0 0 .247-1.229c.033-.434.082-.873.154-1.312.258-1.745.398-3.506.416-5.27 0-1.762 0-3.508-.126-5.226a82.905 82.905 0 0 1-.033-9.551c.154-3.228.31-6.454.467-9.678.065-.747.11-1.493.115-2.234v-2.223c.012-.772-.041-1.543-.16-2.306-.115-.73-.23-1.487-.345-2.284a8.141 8.141 0 0 1-.164-1.602c-.017-.511-.21-1-.549-1.384l-.592-.549a.659.659 0 0 1-.225-.675c.06-.126.11-.197.143-.197a.795.795 0 0 0 .268-.225ZM147.906 64.191a3.838 3.838 0 0 1-1.733-1.18 17.882 17.882 0 0 1-1.245-1.702 50.08 50.08 0 0 0-1.722-2.453 12.756 12.756 0 0 0-2.078-2.196 15.662 15.662 0 0 1-1.848-1.707 3.632 3.632 0 0 1-1.004-2.257c.01-.332.143-.649.373-.889.254-.274.565-.49.911-.631.361-.154.718-.291 1.096-.406.326-.098.632-.252.905-.456a9.413 9.413 0 0 0 3.049-3.81 11.07 11.07 0 0 0 1.13-4.49c.033-2.926-.691-5.17-2.155-6.73a7.057 7.057 0 0 0-4.969-2.453 17.317 17.317 0 0 0-8.384 1.46 26.326 26.326 0 0 0-7.272 4.94 40.357 40.357 0 0 0-6.032 7.323 60.363 60.363 0 0 0-4.661 8.651 68.427 68.427 0 0 0-3.224 8.948 50.891 50.891 0 0 0-1.645 8.003 60.803 60.803 0 0 0-.384 14.273 52.501 52.501 0 0 0 2.983 13.58 38.182 38.182 0 0 0 2.479 5.001 36.235 36.235 0 0 0 3.553 5.078 33.056 33.056 0 0 0 4.349 4.336 18.972 18.972 0 0 0 4.727 2.899c1.797.75 3.766.991 5.692.697a22.469 22.469 0 0 0 6.278-1.812 22.957 22.957 0 0 0 5.692-3.677 14.5 14.5 0 0 0 3.839-4.941c.187-.59.335-1.191.444-1.8.121-.703.543-.846 1.267-.429a11.146 11.146 0 0 1 2.446 1.839c.751.736 1.53 1.433 2.325 2.092.636.664 1.25 1.339 1.848 2.014a77.41 77.41 0 0 0 1.842 2.015c.395.45.834.972 1.305 1.581.447.524.695 1.189.702 1.877.072.643-.367 1.17-1.338 1.592-.775.303-1.512.697-2.193 1.175a24.389 24.389 0 0 0-2.435 2.3 66.853 66.853 0 0 1-2.314 2.41 59.188 59.188 0 0 1-4.935 4.177 21.563 21.563 0 0 1-5.632 3.025 29.142 29.142 0 0 1-23.213-1.329 38.497 38.497 0 0 1-11.515-8.826 45.813 45.813 0 0 1-7.584-11.874 58.572 58.572 0 0 1-4.124-13.91 71.017 71.017 0 0 1-.927-14.937 66.543 66.543 0 0 1 1.01-10.5 86.208 86.208 0 0 1 2.703-11.204 93.527 93.527 0 0 1 4.151-10.864 70.818 70.818 0 0 1 5.209-9.557 51.033 51.033 0 0 1 8.511-10.188 37.905 37.905 0 0 1 10.869-6.813 32.32 32.32 0 0 1 10.315-2.552c3.199-.268 6.42.065 9.497.983a21.14 21.14 0 0 1 7.699 4.265 17.744 17.744 0 0 1 4.974 7.372 21.563 21.563 0 0 1 1.311 7.548 28.767 28.767 0 0 1-.987 7.756 85.717 85.717 0 0 1-1.36 3.596 34.787 34.787 0 0 1-1.722 3.634 66.916 66.916 0 0 1-2.386 3.628 38.537 38.537 0 0 0-2.264 3.623 3.676 3.676 0 0 0-.549 1.098 5.96 5.96 0 0 1-.68 1.345.772.772 0 0 1-.97.44ZM220.763 43.77c2.084-.197 4.168-.438 6.252-.724a53.19 53.19 0 0 1 6.246-.46c.751 0 1.206.285 1.371.817.166.59.284 1.192.35 1.8.072.984.23 1.96.472 2.915.241.95.439 1.916.598 2.915.158.416.258.852.296 1.296.029.44.086.878.17 1.312.172.438.315.887.428 1.345.119.461.092.948-.077 1.394-.176.444-.653.444-1.442 0a9.778 9.778 0 0 1-1.426-.878 4.93 4.93 0 0 0-2.621-.319c-.916.126-1.832.236-2.742.324a85.44 85.44 0 0 1-3.186.236 83.033 83.033 0 0 0-3.186.236c-1.08.099-2.002.148-3 .165a13.608 13.608 0 0 0-3.125.417 3.663 3.663 0 0 1-1.646.027c-.669-.104-1.003.22-1.009.978a78.024 78.024 0 0 0-.312 6.197 160.887 160.887 0 0 1-.192 6.181c1.497-.137 2.999-.302 4.502-.483 1.503-.181 2.956-.384 4.387-.61a6.486 6.486 0 0 0 1.694-.592 7.872 7.872 0 0 0 1.448-1.098c.664-.549 1.152-.67 1.437-.324a1.712 1.712 0 0 1 .17 1.554c-.263 1.542-.549 3.08-.921 4.622-.373 1.542-.741 3.09-1.174 4.644l-.91 3.842c-.093.428-.198.922-.335 1.482a1.55 1.55 0 0 1-.943 1.153c-.164-.395-.329-.78-.488-1.142a1.79 1.79 0 0 0-.855-.818 2.83 2.83 0 0 0-1.306-.318c-.466 0-.943 0-1.436-.055-.17 0-.549.033-1.124.044-.576.011-1.168.05-1.75.104a6.087 6.087 0 0 0-1.563.335.92.92 0 0 0-.701.884c.06 2.432 0 4.842-.138 7.251-.137 2.41-.235 4.826-.263 7.257a95.72 95.72 0 0 0 3.565-.395c1.206-.16 2.396-.33 3.564-.549a28.041 28.041 0 0 1 3.751-.357c1.25-.033 2.5-.108 3.751-.225a9.865 9.865 0 0 0 5.637-1.8c.355-.182.674-.425.943-.72.321-.327.68-.614 1.069-.856.254-.181.569-.258.878-.214.247.066.373.428.362 1.098a5.634 5.634 0 0 1-.647 2.597 9.062 9.062 0 0 0-.883 2.552 46.22 46.22 0 0 0-.658 3.376l-.549 3.365a5.816 5.816 0 0 1-.707 1.982 3.12 3.12 0 0 1-1.821 1.065c-.7.147-1.412.235-2.127.263-.746.028-1.459.077-2.122.137-2.084.198-4.563.454-7.436.769l-8.999.977-9.443 1.021c-3.17.344-6.107.644-8.812.9-2.706.256-5.06.456-7.063.599-1.996.146-3.371.216-4.124.208a25.154 25.154 0 0 1-5.61-.735 16.464 16.464 0 0 1-4.968-2.306 14.781 14.781 0 0 1-3.839-3.93 26.408 26.408 0 0 0-1.535-2.443 14.604 14.604 0 0 1-1.409-2.454 52.02 52.02 0 0 0-1.289-2.59c-.444-.83-.79-1.71-1.031-2.62a47.426 47.426 0 0 1-.844-3.205c-.242-1.076-.472-2.196-.708-3.338a23.285 23.285 0 0 1-.181-6.8 50.32 50.32 0 0 0 .159-3.552c.012-1.193.107-2.384.285-3.563a43.867 43.867 0 0 1 3.751-11.967 48.518 48.518 0 0 1 2.802-5.187l1.393-2.196a11.045 11.045 0 0 1 1.645-1.987 15.75 15.75 0 0 1 3.466-3.42 23.043 23.043 0 0 1 3.888-2.322 24.714 24.714 0 0 1 3.696-1.356c1.174-.324 2.193-.549 3.005-.73l37.245-2.997Zm-27.627 14.734a9.718 9.718 0 0 0-4.09-2.832 8.093 8.093 0 0 0-5.243.05 11.35 11.35 0 0 0-2.259 1.037 7.577 7.577 0 0 0-2.018 1.767 44.58 44.58 0 0 0-2.089 2.789 18.43 18.43 0 0 0-1.717 3.002 27.881 27.881 0 0 0-2.007 6.692c-.398 2.357-.817 4.65-1.256 6.878a25.192 25.192 0 0 0-.137 6.829c.275 2.163.549 4.391.872 6.73a15.116 15.116 0 0 0 1.739 5.714 16.232 16.232 0 0 0 3.635 4.513 7.532 7.532 0 0 0 5.034 2.047c1.979.066 3.942-.38 5.698-1.295a14.047 14.047 0 0 0 4.787-4.112 20.741 20.741 0 0 0 2.934-5.583 30.64 30.64 0 0 0 1.031-3.628c.263-1.2.484-2.4.663-3.601.443-2.896.599-5.829.466-8.756a46.557 46.557 0 0 0-.981-7.685 27.3 27.3 0 0 0-2.117-6.241 16.693 16.693 0 0 0-2.945-4.315ZM242.516 41.46a9.068 9.068 0 0 1 1.645-.286c.664-.06 1.311-.104 1.936-.12l1.689-.033c.499 0 .872 0 1.124-.044a21.327 21.327 0 0 1 3.186-.302 19.46 19.46 0 0 0 3.186-.302 22.45 22.45 0 0 0 1.689-.22 4.703 4.703 0 0 1 1.683 0c.582 0 .746.203.494.55-.252.345-.461.614-.631.883a5.977 5.977 0 0 0-1.096 3.135 25.88 25.88 0 0 0 .033 3.15c0 1.263.027 2.524.082 3.783.07 1.22.057 2.443-.039 3.661a51.986 51.986 0 0 0-.076 7.202c.146 2.36.122 4.726-.072 7.081 0 1.175 0 2.311.094 3.398a23.873 23.873 0 0 1-.039 3.415 20.49 20.49 0 0 0-.225 3.551c.029 1.175.12 2.348.275 3.513.242 2.03.835 4 1.754 5.825a7.752 7.752 0 0 0 4.267 3.952c1.656.776 3.385.655 5.187-.362a12.022 12.022 0 0 0 4.223-3.81c.504-.797.93-1.64 1.272-2.52.344-.888.605-1.807.779-2.744a6.877 6.877 0 0 0 .323-1.548c.055-.505.121-1.016.203-1.532a6.7 6.7 0 0 0 0-1.833 70.917 70.917 0 0 1-.23-1.806c-.077-.664.033-1.142.076-1.647.044-.505.121-1.021.203-1.532.083-.51 0-1.158-.038-1.701a21.606 21.606 0 0 1-.044-1.697c0-1.185.044-2.404.099-3.672.055-1.268.126-2.492.225-3.683.092-1.096.103-2.197.032-3.294-.076-.999-.142-2.047-.213-3.134.009-1.19.085-2.377.224-3.557a21.15 21.15 0 0 0 .099-3.541 14.216 14.216 0 0 1 .088-2.98 9.914 9.914 0 0 0 0-2.96c-.164-.4-.305-.808-.422-1.224a15.632 15.632 0 0 0-.428-1.224 2.24 2.24 0 0 0-.675-.944 1.51 1.51 0 0 1-.548-.955c-.077-.247.104-.434.548-.549a15.053 15.053 0 0 1 1.618-.335 12.144 12.144 0 0 1 1.799-.17c.576 0 .948-.033 1.097-.044 1.067-.1 2.125-.284 3.164-.549a10.014 10.014 0 0 1 3.158-.296l1.174-.116a30.23 30.23 0 0 1 1.924-.115 9.912 9.912 0 0 1 1.733.082c.499.083.746.253.746.506-.07.4-.261.77-.548 1.059a2.836 2.836 0 0 0-.697 1.098 5.241 5.241 0 0 0-.334 1.487 23.342 23.342 0 0 0-.077 1.581 21.424 21.424 0 0 0-.225 3.667 36.182 36.182 0 0 1-.099 3.667 19.389 19.389 0 0 0 0 3.475 18.615 18.615 0 0 1 0 3.47l-.076 7.454c0 1.18-.066 2.344-.159 3.486a15.922 15.922 0 0 0 .082 3.463 90.501 90.501 0 0 1-.071 6.95 39.166 39.166 0 0 1-1.125 6.549 75.621 75.621 0 0 1-1.996 6.499c-.355.9-.823 1.75-1.392 2.53a49.967 49.967 0 0 0-1.646 2.432 10.053 10.053 0 0 1-2.39 2.493c-.914.68-1.828 1.357-2.742 2.031a75.343 75.343 0 0 1-2.698 1.899 11.988 11.988 0 0 1-2.945 1.411 96.902 96.902 0 0 1-3.553 1.032c-1.199.322-2.44.461-3.68.411a29.583 29.583 0 0 1-5.846-.708 15.376 15.376 0 0 1-5.204-2.283 20.486 20.486 0 0 1-7.381-9.211 32.541 32.541 0 0 1-2.363-12.077c.026-2.445.071-4.87.137-7.273.066-2.405.113-4.83.143-7.274.022-2.357.003-4.69-.055-6.999-.057-2.344.009-4.69.197-7.026.094-1.096.107-2.197.039-3.294a35.733 35.733 0 0 0-.346-3.25c-.082-.406-.175-.84-.302-1.295a3.17 3.17 0 0 0-.548-1.147 21.274 21.274 0 0 0-1.3-1.52c-.372-.39-.082-.758.845-1.093ZM312.702 76.597a8.188 8.188 0 0 0-1.596 3.058 23.46 23.46 0 0 0-.472 3.326l-.033 3.47c0 1.141 0 2.294.083 3.469l-.033 3.661c-.019 1.22.093 2.438.334 3.634.03.334.158.65.368.911.237.347.443.715.614 1.098.145.312.247.643.301.983.033.291-.153.499-.548.62a1.485 1.485 0 0 1-1.003.225 4.167 4.167 0 0 0-1.004-.038 9.811 9.811 0 0 0-1.875.368 3.974 3.974 0 0 1-1.876.115 22.973 22.973 0 0 0-4.496.368c-1.484.263-2.99.382-4.497.357a10.75 10.75 0 0 1-1.25-.193c-.417-.093-.412-.406 0-.949.206-.382.439-.749.696-1.098.223-.3.337-.669.324-1.043.093-.675.159-1.356.208-2.037.049-.68.121-1.361.208-2.042.191-2.459.278-4.907.264-7.344a596.7 596.7 0 0 1 0-7.329c.027-2.437.093-4.825.197-7.136.104-2.31.176-4.704.203-7.136-.065-.998.073-2 .406-2.942a6.53 6.53 0 0 0 .279-3.058 16.749 16.749 0 0 1-.153-3.326 31.716 31.716 0 0 0-.028-3.475c-.14-2.151-.112-4.31.083-6.456a15.692 15.692 0 0 0-.691-6.252 6.426 6.426 0 0 0-1.097-2.196c-.17-.148-.373-.318-.62-.505-.246-.187-.164-.39.253-.598.92-.41 1.887-.704 2.879-.879a37.938 37.938 0 0 1 3.005-.411 23.749 23.749 0 0 1 3.378-.319 23.752 23.752 0 0 0 3.372-.318 86.34 86.34 0 0 0 3.564-.406 94.981 94.981 0 0 1 3.691-.412 77.143 77.143 0 0 1 3-.22 23.289 23.289 0 0 0 2.994-.345 92.896 92.896 0 0 1 2.944-.467c.973-.131 1.956-.16 2.934-.088 1.756.215 3.426.88 4.848 1.933a7.686 7.686 0 0 1 3.076 4.128c.651 1.942.824 4.014.505 6.038a22.823 22.823 0 0 1-1.876 6.115 28.777 28.777 0 0 1-3.175 5.094 27.18 27.18 0 0 0-2.084 2.536 16.516 16.516 0 0 1-2.193 2.42c.234.901.614 2.273 1.14 4.118a381.928 381.928 0 0 1 1.744 6.34c.41 1.335.729 2.695.954 4.073.221 1.338.542 2.657.96 3.947.642 2.3 1.201 4.304 1.689 6.038a23.135 23.135 0 0 0 1.097 3.294c.411.807.795 1.614 1.162 2.415.368.802.713 1.647 1.031 2.553a6.168 6.168 0 0 0 2.227 2.822c.321.152.613.358.866.609.159.197-.093.411-.762.642-.894.254-1.814.404-2.742.45-.921.044-1.832.066-2.742.072-.91.005-1.809.148-2.687.192-.911.047-1.814.196-2.692.444a6.227 6.227 0 0 1-2.435.23 22.553 22.553 0 0 0-2.309-.158c-.833 0-1.124-.149-.872-.423.279-.341.458-.754.516-1.191a13.951 13.951 0 0 0-.231-2.498 67.212 67.212 0 0 1-.471-2.487c-.159-.916-.313-1.817-.466-2.744-.402-1.9-.881-3.912-1.437-6.038-.548-2.13-1.097-4.145-1.563-6.039-.559-2.137-1.12-4.23-1.683-6.28-.845.835-1.645 1.647-2.457 2.383-.8.725-1.551 1.503-2.248 2.327Zm3.931-18.296a25.03 25.03 0 0 0 2.15-2.41 49.208 49.208 0 0 1 2.024-2.41 15.829 15.829 0 0 0 1.765-1.992 3.388 3.388 0 0 0 .653-2.399 4.707 4.707 0 0 0-.724-2.196 3.29 3.29 0 0 0-1.859-1.334 5.54 5.54 0 0 0-3.06-.153 29.63 29.63 0 0 1-3.191.494l-1.645.153c-.25.028-.502.028-.752 0-.164 0-.29.132-.373.478a11.65 11.65 0 0 0-.148 1.647v1.52a13.643 13.643 0 0 0-.093 3.42c.11 1.098.077 2.205-.099 3.294a11.49 11.49 0 0 0-.032 3.409c.153 1.098.308 2.177.466 3.238l1.886-1.817c.51-.466 1.031-.96 1.579-1.476a27.497 27.497 0 0 0 1.453-1.466ZM.208 216.016c.166-.129.322-.27.466-.423.41-.407.677-.937.757-1.509.06-.348.078-.702.055-1.054 0-.357-.066-.708-.115-1.032v-1.345c0-.452.033-.903.099-1.35.015-.788.074-1.574.175-2.355.088-.78.11-1.566.066-2.35 0-.84 0-1.647-.06-2.503a19.349 19.349 0 0 1 0-2.52c.197-3.363.26-6.676.186-9.941a97.504 97.504 0 0 1 .269-9.881c.069-.617.098-1.239.087-1.861a3.563 3.563 0 0 0-.438-1.674 16.24 16.24 0 0 0-.691-1.065 3.294 3.294 0 0 1-.549-1.098c-.164-.483-.038-.774.379-.872.37-.088.745-.15 1.124-.187.78.035 1.56-.039 2.32-.22a32.46 32.46 0 0 1 2.325-.472 11.435 11.435 0 0 1 2.193-.17c.732.02 1.465-.007 2.194-.082a14.704 14.704 0 0 0 2.484-.275c.82-.161 1.655-.227 2.49-.197a23.344 23.344 0 0 1 4.14.324c1.36.225 2.67.681 3.877 1.35a13.437 13.437 0 0 1 5.121 5.039 24.83 24.83 0 0 1 2.786 6.939c.7 2.685.965 5.465.784 8.234a24.873 24.873 0 0 1-1.947 8.305 9.49 9.49 0 0 1-1.014 1.773 13.324 13.324 0 0 0-1.097 1.779c-.157.27-.3.549-.427.834a7.102 7.102 0 0 1-.423.835 5.819 5.819 0 0 1-.8.999 32.62 32.62 0 0 0-.878.922 24.681 24.681 0 0 1-3.005 2.794 14.401 14.401 0 0 1-3.504 2.004 26.829 26.829 0 0 1-4.568 1.355 46.327 46.327 0 0 1-4.732.698 122.1 122.1 0 0 1-4.557.516c-1.492.142-3.016.312-4.563.516A1.524 1.524 0 0 1 0 216.494l.165.153-.165-.153.165.153-.083-.077a.41.41 0 0 1 .126-.554Zm10.76-33.551c0 .67 0 1.323.06 1.96a11.29 11.29 0 0 1 0 1.97c0 .67-.039 1.345-.099 2.021-.06.675-.099 1.35-.104 2.02-.006.669 0 1.257 0 1.926 0 .67.033 1.334.027 2.004a176.654 176.654 0 0 0-.17 3.952 71.628 71.628 0 0 1-.247 4.041 15.356 15.356 0 0 0 .044 3.601c0 .292.025.584.077.872.047.287.071.577.071.868.055.319.055.646 0 .966a6.21 6.21 0 0 0-.093.971c.439-.044.916-.115 1.41-.214a6.179 6.179 0 0 1 1.409-.137l1.535-.143a3.381 3.381 0 0 0 1.453-.477 19.287 19.287 0 0 0 4.431-3.766 24.798 24.798 0 0 0 1.684-2.421c.502-.822.9-1.703 1.184-2.624.323-1.086.52-2.206.587-3.337.066-1.098.137-2.196.203-3.327a32.078 32.078 0 0 0-.516-6.318 80.412 80.412 0 0 0-.713-2.822 6.871 6.871 0 0 0-1.3-2.514 9.215 9.215 0 0 0-1.886-1.872 6.229 6.229 0 0 0-2.467-1.004 12.811 12.811 0 0 0-3.29-.11l-3.29.308v3.606ZM40.985 154.414a7.69 7.69 0 0 1 1.919 2.498c.45.935.722 1.946.8 2.981a8.97 8.97 0 0 1-.323 3.046 8.865 8.865 0 0 1-1.437 2.855c-.395.488-.8.955-1.217 1.416-.417.461-.856.906-1.3 1.339-.176.22-.429.363-.707.401a8.088 8.088 0 0 1-1.283-.044c1.126-1.895 1.583-3.42 1.37-4.572-.212-1.153-1.138-2.209-2.78-3.168a3.248 3.248 0 0 1 .39-1.839c.312-.549.608-1.158.888-1.8l.85-1.587c.28-.549.548-1.026.839-1.504.779-.461 1.442-.472 1.99-.022Z" fill="#fff"/><path d="M116.803 205.169c0 .154-.718.357-2.15.604-1.431.247-3.032.494-4.798.741s-3.466.439-5.083.593l-2.989.285a9.342 9.342 0 0 0-.74-4.891 10.984 10.984 0 0 0-2.775-3.667 16.911 16.911 0 0 0-4.096-2.58 29.54 29.54 0 0 0-4.546-1.619 34.6 34.6 0 0 0-5.912-.752 44.27 44.27 0 0 0-5.916.165c-.834.076-1.75.126-2.742.148a5.262 5.262 0 0 0-2.66.708 2.586 2.586 0 0 0-1.316 1.433c-.257.632-.47 1.281-.636 1.943-.31 1.017-.603 1.993-.877 2.926-.28.96-.61 1.906-.988 2.832a28.234 28.234 0 0 0-.937 3.294 28.1 28.1 0 0 1-.932 3.293 28.666 28.666 0 0 1-2.49 5.764c-1.031 1.804-2.082 3.634-3.153 5.49a47.72 47.72 0 0 1-7.381 10.1 35.275 35.275 0 0 1-10.057 7.279 26.664 26.664 0 0 1-5.967 2.273 92.305 92.305 0 0 1-6.032 1.257 19.014 19.014 0 0 1-11.592-1.647 62.12 62.12 0 0 1-2.413-1.136 16.412 16.412 0 0 1-2.298-1.378c-.71-.513-1.365-1.1-1.952-1.751a60.17 60.17 0 0 0-1.727-1.894 33.082 33.082 0 0 0-1.909-1.301 7.938 7.938 0 0 0-.899-.313 1.094 1.094 0 0 1-.669-.549c-.148-.214-.12-.522.066-.922.209-.422.479-.81.8-1.153.346-.379.708-.736 1.097-1.098.39-.362.642-.593.795-.763.763-.752 1.503-1.509 2.221-2.256a48.917 48.917 0 0 1 2.336-2.273l.631-.691c.34-.368.702-.747 1.097-1.126a8.399 8.399 0 0 1 1.02-.894c.301-.22.488-.22.548 0 .143.675.302 1.323.483 1.948.186.64.467 1.249.833 1.806a10.82 10.82 0 0 0 3.685 3.415 11.376 11.376 0 0 0 4.886 1.647c1.78.164 3.573.085 5.33-.237a20.293 20.293 0 0 0 5.314-1.756 28.175 28.175 0 0 0 11.9-11.045 49.252 49.252 0 0 0 4.332-9.985 214.712 214.712 0 0 1 1.98-6.115 214.712 214.712 0 0 0 1.979-6.115c.154-.39.345-.851.548-1.362a1.453 1.453 0 0 0 .132-1.213 1.596 1.596 0 0 0-.84-.834l-1.096-.467a21.935 21.935 0 0 0-2.522-1.41 16.183 16.183 0 0 1-2.517-1.532 13.137 13.137 0 0 1-3.51-3.996 18.476 18.476 0 0 0-3.087-4.145 10.18 10.18 0 0 1-1.097-1.213c-.406-.549-.302-1.015.302-1.454a26.109 26.109 0 0 1 2.67-2.136 88.097 88.097 0 0 1 2.896-1.921c.826-.574 1.7-1.077 2.61-1.504.296-.181.674-.384 1.135-.621a3.57 3.57 0 0 1 1.24-.4c.449.033.712.406.778 1.125.038.509.107 1.015.208 1.515a5.61 5.61 0 0 0 .713 1.927c.335.549.686 1.098 1.053 1.647.592.702 1.212 1.421 1.843 2.163a3.718 3.718 0 0 0 2.297 1.322.757.757 0 0 0 .9-.258c.248-.3.434-.647.548-1.021.121-.401.218-.81.29-1.224.06-.336.14-.668.242-.993a72.11 72.11 0 0 0 1.047-3.233 69.801 69.801 0 0 1 1.048-3.228c.312-1.021.586-2.031.822-3.041a42.4 42.4 0 0 1 .823-3.041c.318-1.016.641-2.196.992-3.349s.68-2.251.993-3.338c.698-2.272 1.36-4.482 1.985-6.631a75.922 75.922 0 0 1 2.193-6.422 82.072 82.072 0 0 0 1.048-2.948c.312-.939.62-1.96.927-3.052.307-1.092.515-2.157.822-3.211a7.491 7.491 0 0 0 .263-3.162 9.308 9.308 0 0 1-.263-1.685c-.033-.549.368-.906 1.195-1.137a8.306 8.306 0 0 1 1.92-.181 8.362 8.362 0 0 0 1.92-.181 41.706 41.706 0 0 1 2.988-.401 21.374 21.374 0 0 0 2.994-.51c.225 0 .581-.077 1.097-.159.515-.083.998-.149 1.524-.198.45-.054.904-.039 1.349.044a.79.79 0 0 1 .669.675c.15.925.15 1.869 0 2.794a8.705 8.705 0 0 0-.027 2.794c.127 1.009.362 2.001.701 2.959.324.917.675 1.855 1.042 2.805a95.651 95.651 0 0 1 2.024 5.852c.618 1.99 1.217 3.985 1.799 5.983a823.63 823.63 0 0 1 4.249 14.19 828.12 828.12 0 0 0 4.25 14.19 441.118 441.118 0 0 0 2.238 7.021c.76 2.32 1.542 4.66 2.347 7.021.367 1.098.712 2.196 1.042 3.293a12.01 12.01 0 0 0 1.376 3.064c.219.356.461.735.718 1.125.258.39.499.774.724 1.131.357.397.587.892.658 1.421v.456c0 .154 0 .242.05.28.049.038.06 0 .06-.176v.11l-.044.044Zm-34.125-46.918c-.395 1.464-.76 2.928-1.097 4.392a43.014 43.014 0 0 1-1.338 4.391c-.859 2.591-1.79 5.17-2.791 7.735a29.115 29.115 0 0 0-1.886 7.866c.911-.007 1.82-.111 2.709-.313a9.41 9.41 0 0 1 2.709-.197h2.703c.905 0 1.804 0 2.709.082s1.799.154 2.703.258c.884.103 1.752.308 2.589.609.822.302 1.59.61 2.297.923.747.33 1.52.6 2.309.807a12.249 12.249 0 0 0-.746-4.392 107.173 107.173 0 0 0-1.645-4.177 25.928 25.928 0 0 1-1.36-4.6 54.484 54.484 0 0 0-1.135-4.628c-.27-.75-.582-1.483-.938-2.196a11.668 11.668 0 0 1-.822-2.196 98.677 98.677 0 0 1-.598-2.332c-.18-.742-.378-1.527-.592-2.339a80.07 80.07 0 0 0-.653-2.333 24.167 24.167 0 0 0-.762-2.196 28.121 28.121 0 0 1-.609-1.767 2.971 2.971 0 0 0-1.053-1.499 152.657 152.657 0 0 0-1.047 3.063c-.313.868-.62 1.757-.932 2.657a22.49 22.49 0 0 0-.73 2.382h.006ZM149.704 143.353c0-.23.285-.384.85-.477.565-.094 1.206-.17 1.919-.242.713-.071 1.393-.11 2.029-.137.636-.027 1.037-.033 1.185-.049a81.868 81.868 0 0 1 3.049-.231 76.91 76.91 0 0 0 2.933-.225c.325-.042.646-.11.96-.203a7.467 7.467 0 0 1 1.3-.236 5.579 5.579 0 0 1 1.184 0c.34.044.505.181.505.412 0 .23-.088.631-.466 1.01a6.045 6.045 0 0 0-.801.927 5.193 5.193 0 0 0-.587 2.569 11.95 11.95 0 0 0-.033 3.25c.138 1.076.164 2.163.077 3.244a209.414 209.414 0 0 0-.406 6.472 44.79 44.79 0 0 0 .165 6.428c.072.492.072.991 0 1.482a9.187 9.187 0 0 0-.132 1.499 4.813 4.813 0 0 0 0 1.477c.072.455.143.938.209 1.465a13.052 13.052 0 0 1-.203 3.212 10.285 10.285 0 0 0-.088 3.2c.143.908.173 1.83.088 2.745a32.988 32.988 0 0 0-.143 2.744c.06 1.131.066 2.273 0 3.415-.066 1.141-.077 2.25-.088 3.293a80.3 80.3 0 0 1-.087 3.085c-.052.986-.042 1.974.027 2.959.066.379.121.752.154 1.131.035.377.126.747.268 1.098.154.214.412.549.779 1.004.367.456.483.774.329.939a1.368 1.368 0 0 1-1.069.445 5.96 5.96 0 0 0-1.305.236c-.481.12-.974.186-1.47.197-.45 0-.938.028-1.464.083l-3.29.307a51.433 51.433 0 0 0-3.291.428c-.153 0-.493.05-1.02.148-.522.087-1.05.138-1.579.154a2.178 2.178 0 0 1-1.184-.231c-.258-.164-.236-.455.071-.861.175-.274.385-.523.625-.741.237-.224.447-.474.625-.747.296-.386.496-.838.582-1.317.075-.476.117-.957.126-1.439v-3.079c0-.988-.039-1.971-.028-2.959a11.953 11.953 0 0 0-.098-1.702c-.07-.564-.1-1.133-.088-1.701 0-.604 0-1.159.071-1.647.071-.489.066-1.016.071-1.543a3.713 3.713 0 0 0-.932-2.711 24.513 24.513 0 0 0-2.062-1.911 18.35 18.35 0 0 1-2.232-2.47 26.018 26.018 0 0 0-2.226-2.58l-2.287-2.349a33.85 33.85 0 0 1-2.286-2.575 5.917 5.917 0 0 1-.949-1.098c-.257-.38-.533-.747-.828-1.098a10.471 10.471 0 0 0-1.168-1.196 22.557 22.557 0 0 1-1.174-1.032 69.108 69.108 0 0 0-.411 6.647c-.006.607.027 1.214.099 1.817.067.604.098 1.21.093 1.817-.082.615-.148 1.23-.192 1.839a9.655 9.655 0 0 0 .038 1.823 13.388 13.388 0 0 1-.131 1.778 13.574 13.574 0 0 0-.132 1.779 6.928 6.928 0 0 0 .154 1.526 4.82 4.82 0 0 1 .044 1.647 34.734 34.734 0 0 0-.099 3.485 38.06 38.06 0 0 1-.093 3.601 35.716 35.716 0 0 1-.203 3.552 8.649 8.649 0 0 0 .356 3.502c.137.414.304.818.499 1.208.193.393.432.762.713 1.098.373.346.357.593-.06.741l-.965.379a8.988 8.988 0 0 1-3.554.51 12.853 12.853 0 0 0-3.553.275 27.67 27.67 0 0 1-2.194.384c-.855.121-1.672.219-2.429.291-.757.071-1.409.11-1.974.126s-.845 0-.839-.093c-.154-.291.099-.824.746-1.609a5.459 5.459 0 0 0 1.212-2.338c.234-1.092.321-2.211.257-3.327-.065-1.134-.128-2.27-.186-3.409l.06-6.214a173.61 173.61 0 0 0-.049-6.323c.026-2.196.068-4.392.126-6.588.066-2.195.214-4.331.461-6.482.174-2.111.235-4.229.181-6.346-.05-2.081-.072-4.156-.05-6.203 0-.917.061-1.834.143-2.745.085-.871.055-1.749-.088-2.613-.066-.373-.142-.768-.214-1.18a5.733 5.733 0 0 0-.318-1.164 2.449 2.449 0 0 0-.614-.911 4.42 4.42 0 0 1-.724-.9c-.219-.28-.279-.505-.159-.67.16-.194.377-.334.62-.401.293-.101.596-.169.905-.203l.68-.06c1.047-.176 2.127-.373 3.213-.588 1.059-.216 2.14-.3 3.219-.252.916.068 1.837.02 2.742-.143a37.886 37.886 0 0 1 2.742-.378c.15 0 .468-.011.954-.033.488 0 .735.181.729.548-.106.286-.262.55-.46.78-.231.289-.269.503-.116.642a6.04 6.04 0 0 0 1.273 2.103 70.98 70.98 0 0 1 1.645 1.839c.592.779 1.201 1.581 1.831 2.393a63.617 63.617 0 0 0 1.947 2.382c.75.767 1.457 1.575 2.117 2.421a20.894 20.894 0 0 0 2.231 2.405c.67.698 1.32 1.418 1.953 2.157a10.174 10.174 0 0 0 2.193 1.905 26.93 26.93 0 0 0 .291-5.956 50.89 50.89 0 0 1-.05-5.923c.083-.923.187-1.861.308-2.822a9.718 9.718 0 0 0 0-2.788 2.992 2.992 0 0 0-1.097-1.839 10.616 10.616 0 0 0-.614-.511.545.545 0 0 1-.324-.659ZM199.002 138.682c0-.225.286-.384.85-.478.565-.093 1.207-.17 1.92-.236a35.445 35.445 0 0 1 2.034-.137 23.23 23.23 0 0 0 1.179-.055 81.808 81.808 0 0 1 3.049-.23 77.12 77.12 0 0 0 2.934-.225 6.12 6.12 0 0 0 .965-.198c.423-.119.856-.2 1.294-.242a5.336 5.336 0 0 1 1.185 0c.34.039.504.176.504.407 0 .23-.082.631-.466 1.015a5.968 5.968 0 0 0-.795.928 5.089 5.089 0 0 0-.587 2.563 11.755 11.755 0 0 0-.038 3.25c.137 1.076.163 2.163.077 3.244-.17 2.147-.302 4.298-.406 6.478a45.526 45.526 0 0 0 .164 6.428 5.07 5.07 0 0 1 0 1.476 9.086 9.086 0 0 0-.131 1.499 4.783 4.783 0 0 0 0 1.482c.069.45.14.939.214 1.466a13.511 13.511 0 0 1-.203 3.206 10.137 10.137 0 0 0-.094 3.2c.144.908.173 1.83.088 2.745a33.118 33.118 0 0 0-.142 2.744 31.465 31.465 0 0 1 0 3.42 60.242 60.242 0 0 0-.094 3.294 62.02 62.02 0 0 1-.087 3.079c-.052.988-.042 1.978.027 2.965.066.373.121.746.159 1.125.035.377.126.747.269 1.098.148.214.406.549.778 1.01.373.461.483.768.329.938a1.387 1.387 0 0 1-1.096.445 5.968 5.968 0 0 0-1.3.231c-.48.124-.974.192-1.47.203-.449 0-.943.027-1.464.077l-3.29.307a51.66 51.66 0 0 0-3.29.428c-.154 0-.494.066-1.02.154a11.78 11.78 0 0 1-1.579.148 2.198 2.198 0 0 1-1.185-.225c-.258-.17-.236-.456.071-.867a3.64 3.64 0 0 1 .626-.741c.238-.223.45-.474.63-.747.3-.4.498-.867.576-1.361.075-.476.117-.957.126-1.438v-3.075c0-.982-.038-1.976-.027-2.964a12.895 12.895 0 0 0-.094-1.701 12.035 12.035 0 0 1-.093-1.697c0-.609.028-1.163.072-1.646.043-.484.065-1.016.071-1.543a3.706 3.706 0 0 0-.932-2.706 22.994 22.994 0 0 0-2.062-1.911 18.61 18.61 0 0 1-2.232-2.47 26.727 26.727 0 0 0-2.227-2.585l-2.286-2.344a35.518 35.518 0 0 1-2.287-2.58 5.68 5.68 0 0 1-.943-1.098c-.259-.38-.537-.746-.834-1.098a11.001 11.001 0 0 0-1.173-1.142c-.411-.34-.806-.686-1.174-1.026a66.2 66.2 0 0 0-.405 6.647c-.011.607.021 1.214.093 1.817.066.602.098 1.207.093 1.812a30.32 30.32 0 0 0-.192 1.844 9.593 9.593 0 0 0 .044 1.817 13.41 13.41 0 0 1-.137 1.779 13.559 13.559 0 0 0-.132 1.778 6.862 6.862 0 0 0 .154 1.526c.109.543.124 1.1.044 1.647a34.905 34.905 0 0 0-.099 3.491c.022 1.175 0 2.372-.088 3.596-.088 1.224-.082 2.404-.208 3.557a8.732 8.732 0 0 0 .356 3.497c.135.415.302.818.499 1.207.195.386.436.745.719 1.071.373.346.351.593-.066.746-.417.154-.735.28-.96.379a8.993 8.993 0 0 1-3.559.505 12.701 12.701 0 0 0-3.553.28c-.603.137-1.338.258-2.194.379-.855.121-1.678.22-2.434.291-.757.071-1.41.11-1.975.126-.564.017-.839 0-.839-.093-.148-.286.099-.818.752-1.603.586-.672 1-1.476 1.206-2.344.235-1.092.321-2.211.258-3.327-.066-1.136-.126-2.267-.187-3.403l.066-6.219c0-2.086-.016-4.193-.049-6.319.022-2.195.062-4.391.121-6.587.065-2.196.213-4.337.46-6.488a58.69 58.69 0 0 0 .181-6.346c-.049-2.081-.071-4.15-.049-6.203 0-.917.06-1.828.142-2.745.085-.871.056-1.749-.087-2.613-.066-.373-.143-.763-.209-1.174a6.147 6.147 0 0 0-.323-1.17 2.557 2.557 0 0 0-.614-.911 4.214 4.214 0 0 1-.724-.9c-.22-.28-.275-.5-.159-.664.158-.199.375-.341.619-.407.295-.1.601-.166.911-.197l.674-.066c1.053-.176 2.126-.371 3.219-.587a13.026 13.026 0 0 1 3.213-.247c.917.063 1.838.013 2.742-.149a36.621 36.621 0 0 1 2.77-.378c.148 0 .466 0 .959-.033.494-.033.73.181.724.549a2.537 2.537 0 0 1-.461.785c-.224.291-.268.499-.115.642.277.779.71 1.492 1.272 2.097.56.593 1.099 1.207 1.618 1.844.592.78 1.203 1.576 1.832 2.388.63.813 1.283 1.608 1.946 2.382a29.918 29.918 0 0 1 2.161 2.438 20.526 20.526 0 0 0 2.232 2.41 57.01 57.01 0 0 1 1.947 2.151 10.147 10.147 0 0 0 2.193 1.905c.323-1.968.42-3.966.291-5.956a50.886 50.886 0 0 1-.05-5.923 82.15 82.15 0 0 1 .307-2.821 9.87 9.87 0 0 0 0-2.789 3.022 3.022 0 0 0-1.096-1.833 7.878 7.878 0 0 0-.614-.511.587.587 0 0 1-.33-.664ZM219.545 136.514a3.963 3.963 0 0 1 1.755-.451h1.743a71.02 71.02 0 0 1 2.819-.214 24.11 24.11 0 0 0 2.824-.318 43.128 43.128 0 0 1 5.758-.609c1.875-.063 3.793-.147 5.752-.253 1.876-.181 3.762-.395 5.643-.653a46.319 46.319 0 0 1 5.643-.417c.674 0 1.097.258 1.234.735.152.539.258 1.09.318 1.647.064.889.205 1.771.422 2.635.219.856.395 1.735.548 2.635.15.373.241.768.269 1.169.032.396.085.79.159 1.18.156.397.285.804.384 1.219.109.416.084.856-.071 1.257-.154.401-.587.401-1.3 0a8.04 8.04 0 0 1-1.283-.79 4.486 4.486 0 0 0-2.364-.286 62.293 62.293 0 0 1-5.363.505 78.37 78.37 0 0 0-2.879.214c-.976.094-1.804.132-2.703.143a12.51 12.51 0 0 0-2.83.379 3.29 3.29 0 0 1-1.464.027c-.598-.093-.905.198-.91.879a74.51 74.51 0 0 0-.285 5.599 164.255 164.255 0 0 1-.165 5.582c1.349-.128 2.702-.274 4.058-.439 1.355-.164 2.676-.346 3.954-.549a5.79 5.79 0 0 0 1.524-.549 6.725 6.725 0 0 0 1.311-.977c.609-.51 1.036-.609 1.294-.296a1.526 1.526 0 0 1 .159 1.405 79.913 79.913 0 0 1-.833 4.172 94.302 94.302 0 0 1-1.059 4.194c-.159.62-.29 1.202-.411 1.74s-.258 1.098-.411 1.746c-.084.366-.183.81-.296 1.334a1.44 1.44 0 0 1-.298.633 1.437 1.437 0 0 1-.563.415 32.846 32.846 0 0 0-.439-1.037 1.648 1.648 0 0 0-.779-.78 2.541 2.541 0 0 0-1.184-.285c-.412 0-.839 0-1.294-.05-.154 0-.488.033-1.015.039-.526.005-1.058.043-1.579.093a5.853 5.853 0 0 0-1.415.307.83.83 0 0 0-.625.796 80.17 80.17 0 0 1-.126 6.549 123.724 123.724 0 0 0-.236 6.554c1.053-.104 2.122-.219 3.213-.362a81.512 81.512 0 0 0 3.219-.477 26.2 26.2 0 0 1 3.389-.319c1.124 0 2.254-.099 3.384-.203a8.901 8.901 0 0 0 5.089-1.647c.322-.164.612-.385.855-.653a5.62 5.62 0 0 1 .965-.774c.228-.164.512-.231.79-.187.225.055.334.385.329.994a5.003 5.003 0 0 1-.587 2.344 8.467 8.467 0 0 0-.812 2.261 44.637 44.637 0 0 0-.597 3.053c-.159 1.01-.324 2.025-.483 3.041a5.36 5.36 0 0 1-.636 1.784 2.812 2.812 0 0 1-1.645.96c-.632.137-1.274.218-1.919.242a32.55 32.55 0 0 0-1.914.126c-8.43.732-16.82 1.526-25.17 2.383h-1.294c-.637 0-.845-.22-.62-.626a5.35 5.35 0 0 1 .861-1.098c.322-.309.574-.683.74-1.098.162-.489.263-.996.302-1.51.044-.549.104-1.097.186-1.613a47 47 0 0 0 .516-6.489 89.354 89.354 0 0 0-.154-6.428 102.893 102.893 0 0 1-.104-11.846l.576-11.906c.082-.917.131-1.839.142-2.745l.028-2.745c.014-.95-.052-1.899-.198-2.838-.142-.9-.279-1.833-.422-2.805a10.16 10.16 0 0 1-.203-1.976 2.746 2.746 0 0 0-.658-1.707l-.757-.637a.801.801 0 0 1-.274-.829c.077-.159.137-.241.176-.247.113-.065.213-.151.296-.252ZM296.975 139.214a43.012 43.012 0 0 1-4.036 3.294 57.345 57.345 0 0 0-4.036 3.173c-.319.258-.623.535-.91.829a1.097 1.097 0 0 1-1.136.389c-.148 0-.148-.285 0-.911.112-.379.193-.766.242-1.158a4.944 4.944 0 0 0-.368-2.421 7.07 7.07 0 0 0-1.277-1.987c-2.384-2.584-5.126-2.666-8.226-.247l-1.135.79a4.47 4.47 0 0 0-1.025 1.011 5.1 5.1 0 0 0-.856 1.218c-.192.401-.406.802-.636 1.202-.548.966-1.015 1.9-1.437 2.816a19.968 19.968 0 0 0-1.096 3.009 75.312 75.312 0 0 0-1.47 5.956 22.263 22.263 0 0 0-.461 6.082c.066.982.093 1.948.083 2.904-.013.928.053 1.855.197 2.772.212 1.043.428 2.067.647 3.074l.642 2.959a7.196 7.196 0 0 0 1.047 2.519c.477.714.982 1.466 1.497 2.251a9.243 9.243 0 0 0 3.46 3.326 6.363 6.363 0 0 0 4.936.269 14.662 14.662 0 0 0 4.65-2.547 5.963 5.963 0 0 0 1.881-1.833c.457-.75.86-1.531 1.206-2.339.174-.366.328-.742.461-1.125a1.21 1.21 0 0 1 .8-.818.888.888 0 0 1 1.009.478l.669.96a51.728 51.728 0 0 1 1.645 2.295 53.205 53.205 0 0 0 1.646 2.294c.165.241.371.451.608.621.346.281.663.596.949.938.272.315.515.655.724 1.016a.779.779 0 0 1 .049.845c-.38.419-.906.674-1.47.714a3.613 3.613 0 0 0-1.584.494 6.71 6.71 0 0 0-1.991 1.839 8.553 8.553 0 0 1-2.001 1.954 15.462 15.462 0 0 1-5.484 2.575 26.864 26.864 0 0 1-5.934.79 40.186 40.186 0 0 1-5.741-.252 8.191 8.191 0 0 1-2.868-.873 25.65 25.65 0 0 0-2.742-1.224 5.233 5.233 0 0 1-1.957-1.175 23.178 23.178 0 0 1-1.508-1.685c-.593-.78-1.167-1.543-1.722-2.289a20.252 20.252 0 0 1-1.497-2.306 30.08 30.08 0 0 1-3.943-11.028 41.272 41.272 0 0 1-.099-12.186 54.056 54.056 0 0 1 1.887-8.158 38.024 38.024 0 0 1 3.465-7.849 29.13 29.13 0 0 1 4.968-6.286 32.506 32.506 0 0 1 6.532-4.836c5.074-2.928 10.077-3.211 15.008-.851a8.394 8.394 0 0 1 2.857 2.119 17.07 17.07 0 0 1 1.942 3.008l.943 1.395c.296.479.75.84 1.283 1.021.152.004.303.028.45.071.186.044.369.101.548.17.23.132.285.264.165.384l-.45.56ZM310.278 128.494a1.035 1.035 0 0 1-.345.774 1.02 1.02 0 0 0-.346.774 1.317 1.317 0 0 0 .214 1.059c.219.324.406.587.548.802a31.991 31.991 0 0 1 1.646 2.349c.493.785 1.096 1.575 1.645 2.355a271.253 271.253 0 0 1 5.999 8.547c.186.277.353.567.499.867.147.324.406.583.729.73.296.044.549-.148.795-.587.247-.439.417-.785.549-1.027.46-.878.957-1.742 1.491-2.591a76.63 76.63 0 0 1 1.722-2.613c.522-.786.982-1.612 1.376-2.47.41-.875.91-1.704 1.492-2.475.234-.408.502-.796.801-1.159.298-.363.566-.75.8-1.158.309-.407.561-.854.752-1.328.202-.493.491-.945.855-1.334.23-.401.461-.785.691-1.148.217-.325.337-.706.345-1.097a1.582 1.582 0 0 0-.383-.873c-.258-.357-.351-.615-.269-.78.148-.39.548-.598 1.245-.626a29.045 29.045 0 0 0 1.354-.071 162.955 162.955 0 0 0 8.686-.598c.45-.044.905-.105 1.355-.181.449-.077.905-.143 1.354-.187l.549-.055c.281-.028.565-.017.844.033.19.031.375.091.548.176.116.066.061.225-.175.477-.195.301-.5.512-.85.588a3.205 3.205 0 0 0-.96.378 5.62 5.62 0 0 0-1.601 1.977 6.974 6.974 0 0 1-.746 1.097c-.263.335-.548.703-.855 1.098a8.083 8.083 0 0 0-.91 1.455c-.236.483-.505.999-.812 1.559a80.992 80.992 0 0 0-1.716 2.613 64.445 64.445 0 0 1-1.722 2.618 134.155 134.155 0 0 0-1.777 3.129 56.857 56.857 0 0 1-1.782 3.019 80.986 80.986 0 0 0-1.717 2.608c-.531.845-1.096 1.723-1.601 2.607-.504.884-1.129 1.779-1.777 2.674a14.46 14.46 0 0 0-1.551 2.656 5.67 5.67 0 0 0-.423 2.888c.099.989.07 1.988-.087 2.97a7.094 7.094 0 0 0-.077 1.548c.033.494.049 1.01.044 1.537.071.587.071 1.18 0 1.767a13.41 13.41 0 0 0-.137 1.779 19.296 19.296 0 0 0-.028 2.915c.06 1.012.01 2.028-.148 3.03a15.017 15.017 0 0 0-.142 3.206c.062 1.061.087 2.122.076 3.183 0 .84 0 1.647.088 2.503a2.739 2.739 0 0 0 1.217 2.048c.373.269.45.489.225.664a3.049 3.049 0 0 1-1.025.439c-.45.116-.899.22-1.355.297-.455.077-.713.126-.789.132a71.643 71.643 0 0 0-2.994.34 14.69 14.69 0 0 1-2.874.099 9.11 9.11 0 0 0-2.824.269 8.925 8.925 0 0 1-2.819.269c-.751-.083-.882-.33-.383-.763.416-.327.749-.749.97-1.23a4.5 4.5 0 0 0 .549-2.278c-.028-.791-.039-1.565-.028-2.328 0-2.129.132-4.254.346-6.362.206-2.068.247-4.15.12-6.225a22.144 22.144 0 0 1 .104-4.682 21.32 21.32 0 0 0 .105-4.683 3.579 3.579 0 0 0-.549-1.597c-.29-.472-.625-.95-.998-1.449a16.865 16.865 0 0 1-1.047-1.894 10.244 10.244 0 0 0-1.163-1.883c-.378-.549-.762-1.142-1.168-1.718-.406-.576-.8-1.136-1.168-1.713a9.879 9.879 0 0 0-1.168-1.482 9.274 9.274 0 0 1-1.168-1.487 103.513 103.513 0 0 1-2.385-3.706 57.335 57.335 0 0 0-2.501-3.7 11.922 11.922 0 0 0-1.223-1.591 12.073 12.073 0 0 1-1.222-1.592c-.352-.539-.667-1.1-.944-1.68a9.196 9.196 0 0 0-.937-1.559 1.935 1.935 0 0 0-.9-.659 5.514 5.514 0 0 1-1.009-.417c-.301-.121-.405-.247-.334-.368a.998.998 0 0 1 .455-.329c.223-.09.449-.169.68-.236.18-.048.364-.084.548-.11 1.355-.28 2.742-.5 4.124-.675a28.046 28.046 0 0 1 4.003-.209c1.096.121 2.202.093 3.29-.082.154 0 .549-.066 1.135-.165.587-.099.955.006.949.308Z" fill="#fff"/><defs><linearGradient id="paint0_linear_815_65" x1="208.111" y1="279.863" x2="209.614" y2="279.863" gradientUnits="userSpaceOnUse"><stop stop-color="#58100A" stop-opacity="0"/><stop offset=".01" stop-color="#58100A" stop-opacity=".03"/><stop offset=".08" stop-color="#58100A" stop-opacity=".33"/><stop offset=".16" stop-color="#58100A" stop-opacity=".58"/><stop offset=".25" stop-color="#58100A" stop-opacity=".77"/><stop offset=".37" stop-color="#58100A" stop-opacity=".9"/><stop offset=".54" stop-color="#58100A" stop-opacity=".98"/><stop offset="1" stop-color="#58100A"/></linearGradient><linearGradient id="paint1_linear_815_65" x1="112.69" y1="253.058" x2="165.224" y2="253.058" gradientUnits="userSpaceOnUse"><stop stop-color="#58100A" stop-opacity="0"/><stop offset=".01" stop-color="#58100A" stop-opacity=".03"/><stop offset=".08" stop-color="#58100A" stop-opacity=".33"/><stop offset=".16" stop-color="#58100A" stop-opacity=".58"/><stop offset=".25" stop-color="#58100A" stop-opacity=".77"/><stop offset=".37" stop-color="#58100A" stop-opacity=".9"/><stop offset=".54" stop-color="#58100A" stop-opacity=".98"/><stop offset="1" stop-color="#58100A"/></linearGradient></defs></svg>