<svg width="40" height="41" viewBox="0 0 40 41" fill="none" xmlns="http://www.w3.org/2000/svg">
<path d="M7.15 0.290733C7.40463 0.413165 7.6195 0.605021 7.76988 0.844211C7.92026 1.0834 8.00003 1.3602 8 1.64273C8 3.30273 8.624 4.25873 9.406 5.42273L9.464 5.50673C10.128 6.49473 11 7.78873 11 9.64273C11 11.5347 10.046 13.2027 8.592 14.1927C8.974 14.5127 9.312 14.9067 9.604 15.3787C10.556 16.9187 11 19.2727 11 22.6527C11 26.0767 10.54 30.1887 9.79 33.4727C9.418 35.1047 8.956 36.6107 8.406 37.7407C8.14634 38.303 7.80237 38.8223 7.386 39.2807C6.974 39.7027 6.34 40.1527 5.5 40.1527C4.66 40.1527 4.026 39.7027 3.616 39.2807C3.19842 38.8232 2.85433 38.3037 2.596 37.7407C2.044 36.6087 1.582 35.1047 1.21 33.4707C0.429895 29.9162 0.0243478 26.2898 1.92701e-06 22.6507C1.92701e-06 19.2707 0.444002 16.9187 1.396 15.3787C1.6676 14.9317 2.00929 14.5313 2.408 14.1927C1.66555 13.6887 1.05788 13.0104 0.638106 12.2172C0.218336 11.4241 -0.000749611 10.5401 1.92701e-06 9.64273C1.92701e-06 8.90673 1.72853e-06 7.64073 0.766002 6.00673C1.516 4.40673 2.942 2.56873 5.562 0.470733C5.78282 0.294102 6.04906 0.183483 6.33003 0.151635C6.611 0.119787 6.89525 0.168007 7.15 0.290733ZM3 9.64073V9.64273C3 10.3058 3.26339 10.9417 3.73223 11.4105C4.20108 11.8793 4.83696 12.1427 5.5 12.1427C6.16304 12.1427 6.79893 11.8793 7.26777 11.4105C7.73661 10.9417 8 10.3058 8 9.64273C8 8.76473 7.63 8.15673 6.916 7.09473L6.892 7.05873C6.434 6.37873 5.892 5.57273 5.508 4.53873C4.422 5.64273 3.822 6.55873 3.484 7.27873C3 8.31073 3 9.04473 3 9.63873V9.64073ZM3.948 16.9547C3.452 17.7587 3 19.4067 3 22.6527C3 25.8547 3.436 29.7427 4.134 32.8047C4.486 34.3447 4.886 35.5947 5.292 36.4267C5.366 36.5807 5.436 36.7087 5.5 36.8167C5.564 36.7087 5.634 36.5807 5.708 36.4267C6.114 35.5947 6.514 34.3427 6.866 32.8047C7.566 29.7447 8 25.8567 8 22.6527C8 19.4067 7.548 17.7587 7.052 16.9547C6.90241 16.6841 6.67631 16.4635 6.402 16.3207C6.11797 16.197 5.80952 16.1396 5.5 16.1527C5.1 16.1527 4.814 16.2147 4.598 16.3207C4.32369 16.4635 4.09759 16.6841 3.948 16.9547ZM16 25.9787C14.9404 25.801 13.9097 25.4808 12.936 25.0267C12.9945 23.8924 13.0112 22.7563 12.986 21.6207C13.888 22.2267 14.906 22.6727 16 22.9207V17.1427C16 16.3471 16.3161 15.584 16.8787 15.0214C17.4413 14.4588 18.2043 14.1427 19 14.1427H27C26.9999 12.4641 26.5304 10.819 25.6444 9.3932C24.7585 7.96742 23.4915 6.81782 21.9865 6.07429C20.4815 5.33076 18.7986 5.02293 17.1279 5.18558C15.4572 5.34823 13.8653 5.97488 12.532 6.99473C12.132 5.88873 11.562 5.04273 11.166 4.45473L11.086 4.33473C12.8829 3.06803 14.9933 2.31931 17.1867 2.17031C19.3802 2.02131 21.5724 2.47776 23.5241 3.48984C25.4758 4.50191 27.112 6.0307 28.254 7.90933C29.396 9.78796 30 11.9442 30 14.1427H37C37.7957 14.1427 38.5587 14.4588 39.1213 15.0214C39.6839 15.584 40 16.3471 40 17.1427V35.1427C40 35.9384 39.6839 36.7014 39.1213 37.264C38.5587 37.8267 37.7957 38.1427 37 38.1427H19C18.2043 38.1427 17.4413 37.8267 16.8787 37.264C16.3161 36.7014 16 35.9384 16 35.1427V25.9767V25.9787ZM19 26.1047V35.1447H37V17.1447H29.62C28.9969 19.5548 27.6402 21.7116 25.7376 23.3168C23.835 24.922 21.4805 25.8962 19 26.1047ZM26.488 17.1447H19V23.0907C20.6804 22.9023 22.2738 22.2448 23.598 21.1932C24.9222 20.1417 25.9237 18.7387 26.488 17.1447Z" fill="#E56400"></path>
</svg>
