<svg width="40" height="41" fill="none" xmlns="http://www.w3.org/2000/svg"><path d="M7.15.29A1.5 1.5 0 0 1 8 1.644c0 1.66.624 2.616 1.406 3.78l.058.084C10.128 6.495 11 7.789 11 9.643c0 1.892-.954 3.56-2.408 4.55.382.32.72.714 1.012 1.186.952 1.54 1.396 3.894 1.396 7.274 0 3.424-.46 7.536-1.21 10.82-.372 1.632-.834 3.138-1.384 4.268a6.084 6.084 0 0 1-1.02 1.54c-.412.422-1.046.872-1.886.872-.84 0-1.474-.45-1.884-.872a5.99 5.99 0 0 1-1.02-1.54c-.552-1.132-1.014-2.636-1.386-4.27A52.1 52.1 0 0 1 0 22.65c0-3.38.444-5.732 1.396-7.272a4.881 4.881 0 0 1 1.012-1.186A5.493 5.493 0 0 1 0 9.643c0-.736 0-2.002.766-3.636.75-1.6 2.176-3.438 4.796-5.536A1.5 1.5 0 0 1 7.15.29ZM3 9.64v.003a2.5 2.5 0 1 0 5 0c0-.878-.37-1.486-1.084-2.548l-.024-.036c-.458-.68-1-1.486-1.384-2.52-1.086 1.104-1.686 2.02-2.024 2.74C3 8.31 3 9.045 3 9.639v.002Zm.948 7.315C3.452 17.759 3 19.407 3 22.653c0 3.202.436 7.09 1.134 10.152.352 1.54.752 2.79 1.158 3.622.074.154.144.282.208.39a5.05 5.05 0 0 0 .208-.39c.406-.832.806-2.084 1.158-3.622C7.566 29.745 8 25.857 8 22.653c0-3.246-.452-4.894-.948-5.698a1.572 1.572 0 0 0-.65-.634 2.043 2.043 0 0 0-.902-.168c-.4 0-.686.062-.902.168-.274.142-.5.363-.65.634ZM16 25.979a11.91 11.91 0 0 1-3.064-.952 46.22 46.22 0 0 0 .05-3.406A8.948 8.948 0 0 0 16 22.92v-5.778a3 3 0 0 1 3-3h8a9 9 0 0 0-14.468-7.148c-.4-1.106-.97-1.952-1.366-2.54l-.08-.12A12 12 0 0 1 30 14.143h7a3 3 0 0 1 3 3v18a3 3 0 0 1-3 3H19a3 3 0 0 1-3-3v-9.166.002Zm3 .126v9.04h18v-18h-7.38A12.008 12.008 0 0 1 19 26.105Zm7.488-8.96H19v5.946a9.007 9.007 0 0 0 7.488-5.946Z" fill="#E56400"/></svg>