<svg width="20" height="22" viewBox="0 0 20 22" fill="none" xmlns="http://www.w3.org/2000/svg">
<path d="M10.9075 10.5237L14.5097 6.92156L2.87489 0.382399C2.10379 -0.0342171 1.38141 -0.0926893 0.747959 0.362908L10.9075 10.5237ZM15.1236 14.741L18.8683 12.6348C19.5992 12.2255 20 11.6456 20 11.0024C20 10.3605 19.5992 9.7794 18.8695 9.3701L15.4794 7.46609L11.6628 11.2814L15.1236 14.741ZM0.121817 1.24852C0.0438542 1.4885 0 1.7565 0 2.05008V19.9633C0 20.4275 0.102327 20.827 0.287489 21.145L10.1511 11.2802L0.121817 1.24852ZM10.9075 12.0355L1.09879 21.8454C1.28639 21.9173 1.48861 21.9551 1.70179 21.9551C2.08186 21.9551 2.47777 21.843 2.88098 21.6188L14.1552 15.288L10.9075 12.0355Z" fill="white"></path>
</svg>
