<svg width="46" height="46" viewBox="0 0 46 46" fill="none" xmlns="http://www.w3.org/2000/svg">
<path d="M22.9997 32.6297C28.318 32.6297 32.6294 28.3183 32.6294 23C32.6294 17.6817 28.318 13.3704 22.9997 13.3704C17.6814 13.3704 13.3701 17.6817 13.3701 23C13.3701 28.3183 17.6814 32.6297 22.9997 32.6297Z" stroke="#E56400" stroke-width="5" stroke-linecap="round" stroke-linejoin="round"></path>
<path d="M23 3V5.96296M7.44444 38.5556L8.92593 37.0741L7.44444 38.5556ZM37.0741 37.0741L38.5556 38.5556L37.0741 37.0741ZM37.0741 8.92593L38.5556 7.44444L37.0741 8.92593ZM8.92593 8.92593L7.44444 7.44444L8.92593 8.92593ZM5.96296 23H3H5.96296ZM43 23H40.037H43ZM23 40.037V43V40.037Z" stroke="#E56400" stroke-width="5" stroke-linecap="round" stroke-linejoin="round"></path>
</svg>
